<?xml version="1.0" standalone="no"?>
 <!DOCTYPE svg PUBLIC "-//W3C//DTD SVG 1.1//EN" 
 "http://www.w3.org/Graphics/SVG/1.1/DTD/svg11.dtd"> 
<svg
  xmlns:svg="http://www.w3.org/2000/svg"
  xmlns="http://www.w3.org/2000/svg"
  xmlns:xlink="http://www.w3.org/1999/xlink"
  version="1.1"
  width="29.700220cm" height="21.000720cm" viewBox="0 0 116930 82680">
<title>SVG Picture created as UniBoard-B_SilkS.svg date 2021/11/11 23:33:58 </title>
  <desc>Picture generated by PCBNEW </desc>
<g style="fill:#000000; fill-opacity:1;stroke:#000000; stroke-opacity:1;
stroke-linecap:round; stroke-linejoin:round;"
 transform="translate(0 0) scale(1 1)">
</g>
<g style="fill:#000000; fill-opacity:0.0; 
stroke:#000000; stroke-width:-0.000393701; stroke-opacity:1; 
stroke-linecap:round; stroke-linejoin:round;">
</g>
<g style="fill:#000000; fill-opacity:0.0; 
stroke:#000000; stroke-width:39.3701; stroke-opacity:1; 
stroke-linecap:round; stroke-linejoin:round;">
</g>
<g style="fill:#000000; fill-opacity:0.0; 
stroke:#000000; stroke-width:59.0551; stroke-opacity:1; 
stroke-linecap:round; stroke-linejoin:round;">
<rect x="69685.9" y="65357.2" width="42519.7" height="12598.4" rx="0" />
</g>
<g style="fill:#000000; fill-opacity:0.0; 
stroke:#000000; stroke-width:39.3701; stroke-opacity:1; 
stroke-linecap:round; stroke-linejoin:round;">
</g>
<g style="fill:#000000; fill-opacity:0.0; 
stroke:#000000; stroke-width:59.0551; stroke-opacity:1; 
stroke-linecap:round; stroke-linejoin:round;">
<rect x="3937.01" y="3937.01" width="109056" height="74806" rx="0" />
</g>
<g style="fill:#000000; fill-opacity:0.0; 
stroke:#000000; stroke-width:39.3701; stroke-opacity:1; 
stroke-linecap:round; stroke-linejoin:round;">
</g>
<g style="fill:#000000; fill-opacity:0.0; 
stroke:#000000; stroke-width:59.0551; stroke-opacity:1; 
stroke-linecap:round; stroke-linejoin:round;">
<rect x="4724.41" y="4724.41" width="107481" height="73231.2" rx="0" />
</g>
<g style="fill:#000000; fill-opacity:0.0; 
stroke:#000000; stroke-width:39.3701; stroke-opacity:1; 
stroke-linecap:round; stroke-linejoin:round;">
</g>
<g style="fill:#000000; fill-opacity:0.0; 
stroke:#000000; stroke-width:59.0551; stroke-opacity:1; 
stroke-linecap:round; stroke-linejoin:round;">
<path d="M23622 4724
L23622 3937
" />
</g>
<g style="fill:#000000; fill-opacity:0.0; 
stroke:#000000; stroke-width:39.3701; stroke-opacity:1; 
stroke-linecap:round; stroke-linejoin:round;">
</g>
<g style="fill:#000000; fill-opacity:0.0; 
stroke:#000000; stroke-width:59.0551; stroke-opacity:1; 
stroke-linecap:round; stroke-linejoin:round;">
<path d="M43307 4724
L43307 3937
" />
</g>
<g style="fill:#000000; fill-opacity:0.0; 
stroke:#000000; stroke-width:39.3701; stroke-opacity:1; 
stroke-linecap:round; stroke-linejoin:round;">
</g>
<g style="fill:#000000; fill-opacity:0.0; 
stroke:#000000; stroke-width:59.0551; stroke-opacity:1; 
stroke-linecap:round; stroke-linejoin:round;">
<path d="M62992 4724
L62992 3937
" />
</g>
<g style="fill:#000000; fill-opacity:0.0; 
stroke:#000000; stroke-width:39.3701; stroke-opacity:1; 
stroke-linecap:round; stroke-linejoin:round;">
</g>
<g style="fill:#000000; fill-opacity:0.0; 
stroke:#000000; stroke-width:59.0551; stroke-opacity:1; 
stroke-linecap:round; stroke-linejoin:round;">
<path d="M82677 4724
L82677 3937
" />
</g>
<g style="fill:#000000; fill-opacity:0.0; 
stroke:#000000; stroke-width:39.3701; stroke-opacity:1; 
stroke-linecap:round; stroke-linejoin:round;">
</g>
<g style="fill:#000000; fill-opacity:0.0; 
stroke:#000000; stroke-width:59.0551; stroke-opacity:1; 
stroke-linecap:round; stroke-linejoin:round;">
<path d="M102362 4724
L102362 3937
" />
</g>
<g style="fill:#000000; fill-opacity:0.0; 
stroke:#000000; stroke-width:39.3701; stroke-opacity:1; 
stroke-linecap:round; stroke-linejoin:round;">
</g>
<g style="fill:#000000; fill-opacity:0.0; 
stroke:#000000; stroke-width:59.0551; stroke-opacity:1; 
stroke-linecap:round; stroke-linejoin:round;">
<text x="13779.5" y="4586.61"
textLength="546.494" font-size="682.415" lengthAdjust="spacingAndGlyphs"
text-anchor="start" opacity="0">1</text>
<path d="M14199 4562
L13906 4562
" />
<path d="M14052 4562
L14052 4050
L14004 4123
L13955 4172
L13906 4196
" />
</g>
<g style="fill:#000000; fill-opacity:0.0; 
stroke:#000000; stroke-width:39.3701; stroke-opacity:1; 
stroke-linecap:round; stroke-linejoin:round;">
</g>
<g style="fill:#000000; fill-opacity:0.0; 
stroke:#000000; stroke-width:59.0551; stroke-opacity:1; 
stroke-linecap:round; stroke-linejoin:round;">
<text x="33464.6" y="4586.61"
textLength="546.494" font-size="682.415" lengthAdjust="spacingAndGlyphs"
text-anchor="start" opacity="0">2</text>
<path d="M33591 4099
L33615 4074
L33664 4050
L33786 4050
L33835 4074
L33859 4099
L33884 4147
L33884 4196
L33859 4269
L33567 4562
L33884 4562
" />
</g>
<g style="fill:#000000; fill-opacity:0.0; 
stroke:#000000; stroke-width:39.3701; stroke-opacity:1; 
stroke-linecap:round; stroke-linejoin:round;">
</g>
<g style="fill:#000000; fill-opacity:0.0; 
stroke:#000000; stroke-width:59.0551; stroke-opacity:1; 
stroke-linecap:round; stroke-linejoin:round;">
<text x="53149.6" y="4586.61"
textLength="546.494" font-size="682.415" lengthAdjust="spacingAndGlyphs"
text-anchor="start" opacity="0">3</text>
<path d="M53252 4050
L53569 4050
L53398 4245
L53471 4245
L53520 4269
L53544 4294
L53569 4342
L53569 4464
L53544 4513
L53520 4537
L53471 4562
L53325 4562
L53276 4537
L53252 4513
" />
</g>
<g style="fill:#000000; fill-opacity:0.0; 
stroke:#000000; stroke-width:39.3701; stroke-opacity:1; 
stroke-linecap:round; stroke-linejoin:round;">
</g>
<g style="fill:#000000; fill-opacity:0.0; 
stroke:#000000; stroke-width:59.0551; stroke-opacity:1; 
stroke-linecap:round; stroke-linejoin:round;">
<text x="72834.6" y="4586.61"
textLength="546.494" font-size="682.415" lengthAdjust="spacingAndGlyphs"
text-anchor="start" opacity="0">4</text>
<path d="M73205 4221
L73205 4562
" />
<path d="M73083 4026
L72961 4391
L73278 4391
" />
</g>
<g style="fill:#000000; fill-opacity:0.0; 
stroke:#000000; stroke-width:39.3701; stroke-opacity:1; 
stroke-linecap:round; stroke-linejoin:round;">
</g>
<g style="fill:#000000; fill-opacity:0.0; 
stroke:#000000; stroke-width:59.0551; stroke-opacity:1; 
stroke-linecap:round; stroke-linejoin:round;">
<text x="92519.7" y="4586.61"
textLength="546.494" font-size="682.415" lengthAdjust="spacingAndGlyphs"
text-anchor="start" opacity="0">5</text>
<path d="M92914 4050
L92671 4050
L92646 4294
L92671 4269
L92719 4245
L92841 4245
L92890 4269
L92914 4294
L92939 4342
L92939 4464
L92914 4513
L92890 4537
L92841 4562
L92719 4562
L92671 4537
L92646 4513
" />
</g>
<g style="fill:#000000; fill-opacity:0.0; 
stroke:#000000; stroke-width:39.3701; stroke-opacity:1; 
stroke-linecap:round; stroke-linejoin:round;">
</g>
<g style="fill:#000000; fill-opacity:0.0; 
stroke:#000000; stroke-width:59.0551; stroke-opacity:1; 
stroke-linecap:round; stroke-linejoin:round;">
<text x="112205" y="4586.61"
textLength="546.494" font-size="682.415" lengthAdjust="spacingAndGlyphs"
text-anchor="start" opacity="0">6</text>
<path d="M112575 4050
L112477 4050
L112429 4074
L112404 4099
L112356 4172
L112331 4269
L112331 4464
L112356 4513
L112380 4537
L112429 4562
L112526 4562
L112575 4537
L112599 4513
L112624 4464
L112624 4342
L112599 4294
L112575 4269
L112526 4245
L112429 4245
L112380 4269
L112356 4294
L112331 4342
" />
</g>
<g style="fill:#000000; fill-opacity:0.0; 
stroke:#000000; stroke-width:39.3701; stroke-opacity:1; 
stroke-linecap:round; stroke-linejoin:round;">
</g>
<g style="fill:#000000; fill-opacity:0.0; 
stroke:#000000; stroke-width:59.0551; stroke-opacity:1; 
stroke-linecap:round; stroke-linejoin:round;">
<path d="M23622 77955
L23622 78742
" />
</g>
<g style="fill:#000000; fill-opacity:0.0; 
stroke:#000000; stroke-width:39.3701; stroke-opacity:1; 
stroke-linecap:round; stroke-linejoin:round;">
</g>
<g style="fill:#000000; fill-opacity:0.0; 
stroke:#000000; stroke-width:59.0551; stroke-opacity:1; 
stroke-linecap:round; stroke-linejoin:round;">
<path d="M43307 77955
L43307 78742
" />
</g>
<g style="fill:#000000; fill-opacity:0.0; 
stroke:#000000; stroke-width:39.3701; stroke-opacity:1; 
stroke-linecap:round; stroke-linejoin:round;">
</g>
<g style="fill:#000000; fill-opacity:0.0; 
stroke:#000000; stroke-width:59.0551; stroke-opacity:1; 
stroke-linecap:round; stroke-linejoin:round;">
<path d="M62992 77955
L62992 78742
" />
</g>
<g style="fill:#000000; fill-opacity:0.0; 
stroke:#000000; stroke-width:39.3701; stroke-opacity:1; 
stroke-linecap:round; stroke-linejoin:round;">
</g>
<g style="fill:#000000; fill-opacity:0.0; 
stroke:#000000; stroke-width:59.0551; stroke-opacity:1; 
stroke-linecap:round; stroke-linejoin:round;">
<path d="M82677 77955
L82677 78742
" />
</g>
<g style="fill:#000000; fill-opacity:0.0; 
stroke:#000000; stroke-width:39.3701; stroke-opacity:1; 
stroke-linecap:round; stroke-linejoin:round;">
</g>
<g style="fill:#000000; fill-opacity:0.0; 
stroke:#000000; stroke-width:59.0551; stroke-opacity:1; 
stroke-linecap:round; stroke-linejoin:round;">
<path d="M102362 77955
L102362 78742
" />
</g>
<g style="fill:#000000; fill-opacity:0.0; 
stroke:#000000; stroke-width:39.3701; stroke-opacity:1; 
stroke-linecap:round; stroke-linejoin:round;">
</g>
<g style="fill:#000000; fill-opacity:0.0; 
stroke:#000000; stroke-width:59.0551; stroke-opacity:1; 
stroke-linecap:round; stroke-linejoin:round;">
<text x="13779.5" y="78605.2"
textLength="546.494" font-size="682.415" lengthAdjust="spacingAndGlyphs"
text-anchor="start" opacity="0">1</text>
<path d="M14199 78580
L13906 78580
" />
<path d="M14052 78580
L14052 78069
L14004 78142
L13955 78190
L13906 78215
" />
</g>
<g style="fill:#000000; fill-opacity:0.0; 
stroke:#000000; stroke-width:39.3701; stroke-opacity:1; 
stroke-linecap:round; stroke-linejoin:round;">
</g>
<g style="fill:#000000; fill-opacity:0.0; 
stroke:#000000; stroke-width:59.0551; stroke-opacity:1; 
stroke-linecap:round; stroke-linejoin:round;">
<text x="33464.6" y="78605.2"
textLength="546.494" font-size="682.415" lengthAdjust="spacingAndGlyphs"
text-anchor="start" opacity="0">2</text>
<path d="M33591 78117
L33615 78093
L33664 78069
L33786 78069
L33835 78093
L33859 78117
L33884 78166
L33884 78215
L33859 78288
L33567 78580
L33884 78580
" />
</g>
<g style="fill:#000000; fill-opacity:0.0; 
stroke:#000000; stroke-width:39.3701; stroke-opacity:1; 
stroke-linecap:round; stroke-linejoin:round;">
</g>
<g style="fill:#000000; fill-opacity:0.0; 
stroke:#000000; stroke-width:59.0551; stroke-opacity:1; 
stroke-linecap:round; stroke-linejoin:round;">
<text x="53149.6" y="78605.2"
textLength="546.494" font-size="682.415" lengthAdjust="spacingAndGlyphs"
text-anchor="start" opacity="0">3</text>
<path d="M53252 78069
L53569 78069
L53398 78263
L53471 78263
L53520 78288
L53544 78312
L53569 78361
L53569 78483
L53544 78532
L53520 78556
L53471 78580
L53325 78580
L53276 78556
L53252 78532
" />
</g>
<g style="fill:#000000; fill-opacity:0.0; 
stroke:#000000; stroke-width:39.3701; stroke-opacity:1; 
stroke-linecap:round; stroke-linejoin:round;">
</g>
<g style="fill:#000000; fill-opacity:0.0; 
stroke:#000000; stroke-width:59.0551; stroke-opacity:1; 
stroke-linecap:round; stroke-linejoin:round;">
<text x="72834.6" y="78605.2"
textLength="546.494" font-size="682.415" lengthAdjust="spacingAndGlyphs"
text-anchor="start" opacity="0">4</text>
<path d="M73205 78239
L73205 78580
" />
<path d="M73083 78044
L72961 78410
L73278 78410
" />
</g>
<g style="fill:#000000; fill-opacity:0.0; 
stroke:#000000; stroke-width:39.3701; stroke-opacity:1; 
stroke-linecap:round; stroke-linejoin:round;">
</g>
<g style="fill:#000000; fill-opacity:0.0; 
stroke:#000000; stroke-width:59.0551; stroke-opacity:1; 
stroke-linecap:round; stroke-linejoin:round;">
<text x="92519.7" y="78605.2"
textLength="546.494" font-size="682.415" lengthAdjust="spacingAndGlyphs"
text-anchor="start" opacity="0">5</text>
<path d="M92914 78069
L92671 78069
L92646 78312
L92671 78288
L92719 78263
L92841 78263
L92890 78288
L92914 78312
L92939 78361
L92939 78483
L92914 78532
L92890 78556
L92841 78580
L92719 78580
L92671 78556
L92646 78532
" />
</g>
<g style="fill:#000000; fill-opacity:0.0; 
stroke:#000000; stroke-width:39.3701; stroke-opacity:1; 
stroke-linecap:round; stroke-linejoin:round;">
</g>
<g style="fill:#000000; fill-opacity:0.0; 
stroke:#000000; stroke-width:59.0551; stroke-opacity:1; 
stroke-linecap:round; stroke-linejoin:round;">
<text x="112205" y="78605.2"
textLength="546.494" font-size="682.415" lengthAdjust="spacingAndGlyphs"
text-anchor="start" opacity="0">6</text>
<path d="M112575 78069
L112477 78069
L112429 78093
L112404 78117
L112356 78190
L112331 78288
L112331 78483
L112356 78532
L112380 78556
L112429 78580
L112526 78580
L112575 78556
L112599 78532
L112624 78483
L112624 78361
L112599 78312
L112575 78288
L112526 78263
L112429 78263
L112380 78288
L112356 78312
L112331 78361
" />
</g>
<g style="fill:#000000; fill-opacity:0.0; 
stroke:#000000; stroke-width:39.3701; stroke-opacity:1; 
stroke-linecap:round; stroke-linejoin:round;">
</g>
<g style="fill:#000000; fill-opacity:0.0; 
stroke:#000000; stroke-width:59.0551; stroke-opacity:1; 
stroke-linecap:round; stroke-linejoin:round;">
<path d="M3937 23622
L4724 23622
" />
</g>
<g style="fill:#000000; fill-opacity:0.0; 
stroke:#000000; stroke-width:39.3701; stroke-opacity:1; 
stroke-linecap:round; stroke-linejoin:round;">
</g>
<g style="fill:#000000; fill-opacity:0.0; 
stroke:#000000; stroke-width:59.0551; stroke-opacity:1; 
stroke-linecap:round; stroke-linejoin:round;">
<path d="M3937 43307
L4724 43307
" />
</g>
<g style="fill:#000000; fill-opacity:0.0; 
stroke:#000000; stroke-width:39.3701; stroke-opacity:1; 
stroke-linecap:round; stroke-linejoin:round;">
</g>
<g style="fill:#000000; fill-opacity:0.0; 
stroke:#000000; stroke-width:59.0551; stroke-opacity:1; 
stroke-linecap:round; stroke-linejoin:round;">
<path d="M3937 62992
L4724 62992
" />
</g>
<g style="fill:#000000; fill-opacity:0.0; 
stroke:#000000; stroke-width:39.3701; stroke-opacity:1; 
stroke-linecap:round; stroke-linejoin:round;">
</g>
<g style="fill:#000000; fill-opacity:0.0; 
stroke:#000000; stroke-width:59.0551; stroke-opacity:1; 
stroke-linecap:round; stroke-linejoin:round;">
<text x="4330.71" y="14035.4"
textLength="497.75" font-size="682.415" lengthAdjust="spacingAndGlyphs"
text-anchor="middle" opacity="0">A</text>
<path d="M4208 13864
L4452 13864
" />
<path d="M4160 14011
L4330 13499
L4501 14011
" />
</g>
<g style="fill:#000000; fill-opacity:0.0; 
stroke:#000000; stroke-width:39.3701; stroke-opacity:1; 
stroke-linecap:round; stroke-linejoin:round;">
</g>
<g style="fill:#000000; fill-opacity:0.0; 
stroke:#000000; stroke-width:59.0551; stroke-opacity:1; 
stroke-linecap:round; stroke-linejoin:round;">
<text x="4330.71" y="33720.5"
textLength="570.866" font-size="682.415" lengthAdjust="spacingAndGlyphs"
text-anchor="middle" opacity="0">B</text>
<path d="M4367 33428
L4440 33452
L4464 33476
L4489 33525
L4489 33598
L4464 33647
L4440 33671
L4391 33696
L4196 33696
L4196 33184
L4367 33184
L4416 33208
L4440 33233
L4464 33281
L4464 33330
L4440 33379
L4416 33403
L4367 33428
L4196 33428
" />
</g>
<g style="fill:#000000; fill-opacity:0.0; 
stroke:#000000; stroke-width:39.3701; stroke-opacity:1; 
stroke-linecap:round; stroke-linejoin:round;">
</g>
<g style="fill:#000000; fill-opacity:0.0; 
stroke:#000000; stroke-width:59.0551; stroke-opacity:1; 
stroke-linecap:round; stroke-linejoin:round;">
<text x="4330.71" y="53405.5"
textLength="570.866" font-size="682.415" lengthAdjust="spacingAndGlyphs"
text-anchor="middle" opacity="0">C</text>
<path d="M4489 53332
L4464 53356
L4391 53381
L4342 53381
L4269 53356
L4221 53308
L4196 53259
L4172 53161
L4172 53088
L4196 52991
L4221 52942
L4269 52893
L4342 52869
L4391 52869
L4464 52893
L4489 52918
" />
</g>
<g style="fill:#000000; fill-opacity:0.0; 
stroke:#000000; stroke-width:39.3701; stroke-opacity:1; 
stroke-linecap:round; stroke-linejoin:round;">
</g>
<g style="fill:#000000; fill-opacity:0.0; 
stroke:#000000; stroke-width:59.0551; stroke-opacity:1; 
stroke-linecap:round; stroke-linejoin:round;">
<text x="4330.71" y="73090.6"
textLength="570.866" font-size="682.415" lengthAdjust="spacingAndGlyphs"
text-anchor="middle" opacity="0">D</text>
<path d="M4196 73066
L4196 72554
L4318 72554
L4391 72578
L4440 72627
L4464 72676
L4489 72773
L4489 72846
L4464 72944
L4440 72993
L4391 73041
L4318 73066
L4196 73066
" />
</g>
<g style="fill:#000000; fill-opacity:0.0; 
stroke:#000000; stroke-width:39.3701; stroke-opacity:1; 
stroke-linecap:round; stroke-linejoin:round;">
</g>
<g style="fill:#000000; fill-opacity:0.0; 
stroke:#000000; stroke-width:59.0551; stroke-opacity:1; 
stroke-linecap:round; stroke-linejoin:round;">
<path d="M112992 23622
L112205 23622
" />
</g>
<g style="fill:#000000; fill-opacity:0.0; 
stroke:#000000; stroke-width:39.3701; stroke-opacity:1; 
stroke-linecap:round; stroke-linejoin:round;">
</g>
<g style="fill:#000000; fill-opacity:0.0; 
stroke:#000000; stroke-width:59.0551; stroke-opacity:1; 
stroke-linecap:round; stroke-linejoin:round;">
<path d="M112992 43307
L112205 43307
" />
</g>
<g style="fill:#000000; fill-opacity:0.0; 
stroke:#000000; stroke-width:39.3701; stroke-opacity:1; 
stroke-linecap:round; stroke-linejoin:round;">
</g>
<g style="fill:#000000; fill-opacity:0.0; 
stroke:#000000; stroke-width:59.0551; stroke-opacity:1; 
stroke-linecap:round; stroke-linejoin:round;">
<path d="M112992 62992
L112205 62992
" />
</g>
<g style="fill:#000000; fill-opacity:0.0; 
stroke:#000000; stroke-width:39.3701; stroke-opacity:1; 
stroke-linecap:round; stroke-linejoin:round;">
</g>
<g style="fill:#000000; fill-opacity:0.0; 
stroke:#000000; stroke-width:59.0551; stroke-opacity:1; 
stroke-linecap:round; stroke-linejoin:round;">
<text x="112599" y="14035.4"
textLength="497.75" font-size="682.415" lengthAdjust="spacingAndGlyphs"
text-anchor="middle" opacity="0">A</text>
<path d="M112477 13864
L112721 13864
" />
<path d="M112428 14011
L112599 13499
L112769 14011
" />
</g>
<g style="fill:#000000; fill-opacity:0.0; 
stroke:#000000; stroke-width:39.3701; stroke-opacity:1; 
stroke-linecap:round; stroke-linejoin:round;">
</g>
<g style="fill:#000000; fill-opacity:0.0; 
stroke:#000000; stroke-width:59.0551; stroke-opacity:1; 
stroke-linecap:round; stroke-linejoin:round;">
<text x="112599" y="33720.5"
textLength="570.866" font-size="682.415" lengthAdjust="spacingAndGlyphs"
text-anchor="middle" opacity="0">B</text>
<path d="M112635 33428
L112708 33452
L112733 33476
L112757 33525
L112757 33598
L112733 33647
L112708 33671
L112660 33696
L112465 33696
L112465 33184
L112635 33184
L112684 33208
L112708 33233
L112733 33281
L112733 33330
L112708 33379
L112684 33403
L112635 33428
L112465 33428
" />
</g>
<g style="fill:#000000; fill-opacity:0.0; 
stroke:#000000; stroke-width:39.3701; stroke-opacity:1; 
stroke-linecap:round; stroke-linejoin:round;">
</g>
<g style="fill:#000000; fill-opacity:0.0; 
stroke:#000000; stroke-width:59.0551; stroke-opacity:1; 
stroke-linecap:round; stroke-linejoin:round;">
<text x="112599" y="53405.5"
textLength="570.866" font-size="682.415" lengthAdjust="spacingAndGlyphs"
text-anchor="middle" opacity="0">C</text>
<path d="M112757 53332
L112733 53356
L112660 53381
L112611 53381
L112538 53356
L112489 53308
L112465 53259
L112440 53161
L112440 53088
L112465 52991
L112489 52942
L112538 52893
L112611 52869
L112660 52869
L112733 52893
L112757 52918
" />
</g>
<g style="fill:#000000; fill-opacity:0.0; 
stroke:#000000; stroke-width:39.3701; stroke-opacity:1; 
stroke-linecap:round; stroke-linejoin:round;">
</g>
<g style="fill:#000000; fill-opacity:0.0; 
stroke:#000000; stroke-width:59.0551; stroke-opacity:1; 
stroke-linecap:round; stroke-linejoin:round;">
<text x="112599" y="73090.6"
textLength="570.866" font-size="682.415" lengthAdjust="spacingAndGlyphs"
text-anchor="middle" opacity="0">D</text>
<path d="M112465 73066
L112465 72554
L112587 72554
L112660 72578
L112708 72627
L112733 72676
L112757 72773
L112757 72846
L112733 72944
L112708 72993
L112660 73041
L112587 73066
L112465 73066
" />
</g>
<g style="fill:#000000; fill-opacity:0.0; 
stroke:#000000; stroke-width:39.3701; stroke-opacity:1; 
stroke-linecap:round; stroke-linejoin:round;">
</g>
<g style="fill:#000000; fill-opacity:0.0; 
stroke:#000000; stroke-width:59.0551; stroke-opacity:1; 
stroke-linecap:round; stroke-linejoin:round;">
<text x="78741" y="76321.7"
textLength="8720.47" font-size="787.402" lengthAdjust="spacingAndGlyphs"
text-anchor="start" opacity="0">Date: 2021-11-11</text>
<path d="M78911 76293
L78911 75703
L79051 75703
L79136 75731
L79192 75787
L79220 75843
L79248 75956
L79248 76040
L79220 76153
L79192 76209
L79136 76265
L79051 76293
L78911 76293
" />
<path d="M79754 76293
L79754 75984
L79726 75928
L79670 75899
L79557 75899
L79501 75928
" />
<path d="M79754 76265
L79698 76293
L79557 76293
L79501 76265
L79473 76209
L79473 76153
L79501 76096
L79557 76068
L79698 76068
L79754 76040
" />
<path d="M79951 75899
L80176 75899
" />
<path d="M80036 75703
L80036 76209
L80064 76265
L80120 76293
L80176 76293
" />
<path d="M80598 76265
L80542 76293
L80429 76293
L80373 76265
L80345 76209
L80345 75984
L80373 75928
L80429 75899
L80542 75899
L80598 75928
L80626 75984
L80626 76040
L80345 76096
" />
<path d="M80879 76237
L80907 76265
L80879 76293
L80851 76265
L80879 76237
L80879 76293
" />
<path d="M80879 75928
L80907 75956
L80879 75984
L80851 75956
L80879 75928
L80879 75984
" />
<path d="M81582 75759
L81610 75731
L81667 75703
L81807 75703
L81863 75731
L81892 75759
L81920 75815
L81920 75871
L81892 75956
L81554 76293
L81920 76293
" />
<path d="M82285 75703
L82341 75703
L82398 75731
L82426 75759
L82454 75815
L82482 75928
L82482 76068
L82454 76181
L82426 76237
L82398 76265
L82341 76293
L82285 76293
L82229 76265
L82201 76237
L82173 76181
L82145 76068
L82145 75928
L82173 75815
L82201 75759
L82229 75731
L82285 75703
" />
<path d="M82707 75759
L82735 75731
L82791 75703
L82932 75703
L82988 75731
L83016 75759
L83045 75815
L83045 75871
L83016 75956
L82679 76293
L83045 76293
" />
<path d="M83607 76293
L83269 76293
" />
<path d="M83438 76293
L83438 75703
L83382 75787
L83326 75843
L83269 75871
" />
<path d="M83860 76068
L84310 76068
" />
<path d="M84901 76293
L84563 76293
" />
<path d="M84732 76293
L84732 75703
L84676 75787
L84619 75843
L84563 75871
" />
<path d="M85463 76293
L85126 76293
" />
<path d="M85294 76293
L85294 75703
L85238 75787
L85182 75843
L85126 75871
" />
<path d="M85716 76068
L86166 76068
" />
<path d="M86757 76293
L86419 76293
" />
<path d="M86588 76293
L86588 75703
L86532 75787
L86475 75843
L86419 75871
" />
<path d="M87319 76293
L86982 76293
" />
<path d="M87150 76293
L87150 75703
L87094 75787
L87038 75843
L86982 75871
" />
</g>
<g style="fill:#000000; fill-opacity:0.0; 
stroke:#000000; stroke-width:39.3701; stroke-opacity:1; 
stroke-linecap:round; stroke-linejoin:round;">
</g>
<g style="fill:#000000; fill-opacity:0.0; 
stroke:#000000; stroke-width:59.0551; stroke-opacity:1; 
stroke-linecap:round; stroke-linejoin:round;">
<path d="M69685 76577
L112205 76577
" />
</g>
<g style="fill:#000000; fill-opacity:0.0; 
stroke:#000000; stroke-width:39.3701; stroke-opacity:1; 
stroke-linecap:round; stroke-linejoin:round;">
</g>
<g style="fill:#000000; fill-opacity:0.0; 
stroke:#000000; stroke-width:59.0551; stroke-opacity:1; 
stroke-linecap:round; stroke-linejoin:round;">
<text x="70079.6" y="77424.1"
textLength="14091.7" font-size="787.402" lengthAdjust="spacingAndGlyphs"
text-anchor="start" opacity="0">KiCad E.D.A.  kicad (5.1.10)-1</text>
<path d="M70249 77395
L70249 76805
" />
<path d="M70587 77395
L70334 77058
" />
<path d="M70587 76805
L70249 77142
" />
<path d="M70840 77395
L70840 77002
" />
<path d="M70840 76805
L70812 76833
L70840 76861
L70868 76833
L70840 76805
L70840 76861
" />
<path d="M71458 77339
L71430 77367
L71346 77395
L71290 77395
L71205 77367
L71149 77311
L71121 77255
L71093 77142
L71093 77058
L71121 76946
L71149 76889
L71205 76833
L71290 76805
L71346 76805
L71430 76833
L71458 76861
" />
<path d="M71965 77395
L71965 77086
L71937 77030
L71880 77002
L71768 77002
L71712 77030
" />
<path d="M71965 77367
L71908 77395
L71768 77395
L71712 77367
L71683 77311
L71683 77255
L71712 77199
L71768 77171
L71908 77171
L71965 77142
" />
<path d="M72499 77395
L72499 76805
" />
<path d="M72499 77367
L72443 77395
L72330 77395
L72274 77367
L72246 77339
L72218 77283
L72218 77114
L72246 77058
L72274 77030
L72330 77002
L72443 77002
L72499 77030
" />
<path d="M73230 77086
L73427 77086
" />
<path d="M73511 77395
L73230 77395
L73230 76805
L73511 76805
" />
<path d="M73764 77339
L73793 77367
L73764 77395
L73736 77367
L73764 77339
L73764 77395
" />
<path d="M74046 77395
L74046 76805
L74186 76805
L74271 76833
L74327 76889
L74355 76946
L74383 77058
L74383 77142
L74355 77255
L74327 77311
L74271 77367
L74186 77395
L74046 77395
" />
<path d="M74636 77339
L74664 77367
L74636 77395
L74608 77367
L74636 77339
L74636 77395
" />
<path d="M74889 77227
L75171 77227
" />
<path d="M74833 77395
L75030 76805
L75227 77395
" />
<path d="M75424 77339
L75452 77367
L75424 77395
L75395 77367
L75424 77339
L75424 77395
" />
<path d="M76605 77395
L76605 76805
" />
<path d="M76661 77171
L76830 77395
" />
<path d="M76830 77002
L76605 77227
" />
<path d="M77083 77395
L77083 77002
" />
<path d="M77083 76805
L77055 76833
L77083 76861
L77111 76833
L77083 76805
L77083 76861
" />
<path d="M77617 77367
L77561 77395
L77448 77395
L77392 77367
L77364 77339
L77336 77283
L77336 77114
L77364 77058
L77392 77030
L77448 77002
L77561 77002
L77617 77030
" />
<path d="M78123 77395
L78123 77086
L78095 77030
L78039 77002
L77926 77002
L77870 77030
" />
<path d="M78123 77367
L78067 77395
L77926 77395
L77870 77367
L77842 77311
L77842 77255
L77870 77199
L77926 77171
L78067 77171
L78123 77142
" />
<path d="M78658 77395
L78658 76805
" />
<path d="M78658 77367
L78601 77395
L78489 77395
L78433 77367
L78404 77339
L78376 77283
L78376 77114
L78404 77058
L78433 77030
L78489 77002
L78601 77002
L78658 77030
" />
<path d="M79557 77620
L79529 77592
L79473 77508
L79445 77452
L79417 77367
L79389 77227
L79389 77114
L79417 76974
L79445 76889
L79473 76833
L79529 76749
L79557 76721
" />
<path d="M80064 76805
L79782 76805
L79754 77086
L79782 77058
L79839 77030
L79979 77030
L80036 77058
L80064 77086
L80092 77142
L80092 77283
L80064 77339
L80036 77367
L79979 77395
L79839 77395
L79782 77367
L79754 77339
" />
<path d="M80345 77339
L80373 77367
L80345 77395
L80317 77367
L80345 77339
L80345 77395
" />
<path d="M80935 77395
L80598 77395
" />
<path d="M80767 77395
L80767 76805
L80710 76889
L80654 76946
L80598 76974
" />
<path d="M81188 77339
L81217 77367
L81188 77395
L81160 77367
L81188 77339
L81188 77395
" />
<path d="M81779 77395
L81442 77395
" />
<path d="M81610 77395
L81610 76805
L81554 76889
L81498 76946
L81442 76974
" />
<path d="M82145 76805
L82201 76805
L82257 76833
L82285 76861
L82313 76917
L82341 77030
L82341 77171
L82313 77283
L82285 77339
L82257 77367
L82201 77395
L82145 77395
L82088 77367
L82060 77339
L82032 77283
L82004 77171
L82004 77030
L82032 76917
L82060 76861
L82088 76833
L82145 76805
" />
<path d="M82538 77620
L82566 77592
L82623 77508
L82651 77452
L82679 77367
L82707 77227
L82707 77114
L82679 76974
L82651 76889
L82623 76833
L82566 76749
L82538 76721
" />
<path d="M82988 77171
L83438 77171
" />
<path d="M84029 77395
L83691 77395
" />
<path d="M83860 77395
L83860 76805
L83804 76889
L83748 76946
L83691 76974
" />
</g>
<g style="fill:#000000; fill-opacity:0.0; 
stroke:#000000; stroke-width:39.3701; stroke-opacity:1; 
stroke-linecap:round; stroke-linejoin:round;">
</g>
<g style="fill:#000000; fill-opacity:0.0; 
stroke:#000000; stroke-width:59.0551; stroke-opacity:1; 
stroke-linecap:round; stroke-linejoin:round;">
<path d="M69685 75396
L112205 75396
" />
</g>
<g style="fill:#000000; fill-opacity:0.0; 
stroke:#000000; stroke-width:39.3701; stroke-opacity:1; 
stroke-linecap:round; stroke-linejoin:round;">
</g>
<g style="fill:#000000; fill-opacity:0.0; 
stroke:#000000; stroke-width:118.11; stroke-opacity:1; 
stroke-linecap:round; stroke-linejoin:round;">
<text x="103544" y="76321.7"
textLength="4192.91" font-size="787.402" lengthAdjust="spacingAndGlyphs"
text-anchor="start" opacity="0">Rev: v1.0</text>
<path d="M104099 76293
L103902 76012
" />
<path d="M103761 76293
L103761 75703
L103986 75703
L104042 75731
L104070 75759
L104099 75815
L104099 75899
L104070 75956
L104042 75984
L103986 76012
L103761 76012
" />
<path d="M104577 76265
L104520 76293
L104408 76293
L104352 76265
L104323 76209
L104323 75984
L104352 75928
L104408 75899
L104520 75899
L104577 75928
L104605 75984
L104605 76040
L104323 76096
" />
<path d="M104802 75899
L104942 76293
L105083 75899
" />
<path d="M105308 76237
L105336 76265
L105308 76293
L105280 76265
L105308 76237
L105308 76293
" />
<path d="M105308 75928
L105336 75956
L105308 75984
L105280 75956
L105308 75928
L105308 75984
" />
<path d="M105983 75899
L106123 76293
L106264 75899
" />
<path d="M106798 76293
L106461 76293
" />
<path d="M106629 76293
L106629 75703
L106573 75787
L106517 75843
L106461 75871
" />
<path d="M107051 76237
L107079 76265
L107051 76293
L107023 76265
L107051 76237
L107051 76293
" />
<path d="M107445 75703
L107501 75703
L107557 75731
L107586 75759
L107614 75815
L107642 75928
L107642 76068
L107614 76181
L107586 76237
L107557 76265
L107501 76293
L107445 76293
L107389 76265
L107361 76237
L107332 76181
L107304 76068
L107304 75928
L107332 75815
L107361 75759
L107389 75731
L107445 75703
" />
</g>
<g style="fill:#000000; fill-opacity:0.0; 
stroke:#000000; stroke-width:39.3701; stroke-opacity:1; 
stroke-linecap:round; stroke-linejoin:round;">
</g>
<g style="fill:#000000; fill-opacity:0.0; 
stroke:#000000; stroke-width:59.0551; stroke-opacity:1; 
stroke-linecap:round; stroke-linejoin:round;">
<text x="70079.6" y="76321.7"
textLength="3781.21" font-size="787.402" lengthAdjust="spacingAndGlyphs"
text-anchor="start" opacity="0">Size: A4</text>
<path d="M70221 76265
L70305 76293
L70446 76293
L70502 76265
L70530 76237
L70559 76181
L70559 76124
L70530 76068
L70502 76040
L70446 76012
L70334 75984
L70277 75956
L70249 75928
L70221 75871
L70221 75815
L70249 75759
L70277 75731
L70334 75703
L70474 75703
L70559 75731
" />
<path d="M70812 76293
L70812 75899
" />
<path d="M70812 75703
L70784 75731
L70812 75759
L70840 75731
L70812 75703
L70812 75759
" />
<path d="M71037 75899
L71346 75899
L71037 76293
L71346 76293
" />
<path d="M71796 76265
L71740 76293
L71627 76293
L71571 76265
L71543 76209
L71543 75984
L71571 75928
L71627 75899
L71740 75899
L71796 75928
L71824 75984
L71824 76040
L71543 76096
" />
<path d="M72077 76237
L72105 76265
L72077 76293
L72049 76265
L72077 76237
L72077 76293
" />
<path d="M72077 75928
L72105 75956
L72077 75984
L72049 75956
L72077 75928
L72077 75984
" />
<path d="M72780 76124
L73061 76124
" />
<path d="M72724 76293
L72921 75703
L73118 76293
" />
<path d="M73568 75899
L73568 76293
" />
<path d="M73427 75674
L73286 76096
L73652 76096
" />
</g>
<g style="fill:#000000; fill-opacity:0.0; 
stroke:#000000; stroke-width:39.3701; stroke-opacity:1; 
stroke-linecap:round; stroke-linejoin:round;">
</g>
<g style="fill:#000000; fill-opacity:0.0; 
stroke:#000000; stroke-width:59.0551; stroke-opacity:1; 
stroke-linecap:round; stroke-linejoin:round;">
<text x="103544" y="77424.1"
textLength="3349.27" font-size="787.402" lengthAdjust="spacingAndGlyphs"
text-anchor="start" opacity="0">Id: 1/1</text>
<path d="M103714 77395
L103714 76805
" />
<path d="M104248 77395
L104248 76805
" />
<path d="M104248 77367
L104192 77395
L104079 77395
L104023 77367
L103995 77339
L103967 77283
L103967 77114
L103995 77058
L104023 77030
L104079 77002
L104192 77002
L104248 77030
" />
<path d="M104529 77339
L104557 77367
L104529 77395
L104501 77367
L104529 77339
L104529 77395
" />
<path d="M104529 77030
L104557 77058
L104529 77086
L104501 77058
L104529 77030
L104529 77086
" />
<path d="M105570 77395
L105232 77395
" />
<path d="M105401 77395
L105401 76805
L105345 76889
L105289 76946
L105232 76974
" />
<path d="M106245 76777
L105739 77536
" />
<path d="M106751 77395
L106413 77395
" />
<path d="M106582 77395
L106582 76805
L106526 76889
L106470 76946
L106413 76974
" />
</g>
<g style="fill:#000000; fill-opacity:0.0; 
stroke:#000000; stroke-width:39.3701; stroke-opacity:1; 
stroke-linecap:round; stroke-linejoin:round;">
</g>
<g style="fill:#000000; fill-opacity:0.0; 
stroke:#000000; stroke-width:59.0551; stroke-opacity:1; 
stroke-linecap:round; stroke-linejoin:round;">
<path d="M69685 73821
L112205 73821
" />
</g>
<g style="fill:#000000; fill-opacity:0.0; 
stroke:#000000; stroke-width:39.3701; stroke-opacity:1; 
stroke-linecap:round; stroke-linejoin:round;">
</g>
<g style="fill:#000000; fill-opacity:0.0; 
stroke:#000000; stroke-width:157.48; stroke-opacity:1; 
stroke-linecap:round; stroke-linejoin:round;">
<text x="70079.6" y="74924.1"
textLength="13449.9" font-size="1049.87" lengthAdjust="spacingAndGlyphs"
text-anchor="start" opacity="0">Title: UniSat UniBoard</text>
<path d="M70360 74099
L70810 74099
" />
<path d="M70486 74886
L70585 74099
" />
<path d="M70974 74886
L71039 74361
" />
<path d="M71072 74099
L71030 74136
L71063 74174
L71105 74136
L71072 74099
L71063 74174
" />
<path d="M71302 74361
L71602 74361
" />
<path d="M71447 74099
L71363 74774
L71391 74849
L71461 74886
L71536 74886
" />
<path d="M71911 74886
L71841 74849
L71813 74774
L71897 74099
" />
<path d="M72516 74849
L72436 74886
L72286 74886
L72216 74849
L72187 74774
L72225 74474
L72272 74399
L72352 74361
L72501 74361
L72572 74399
L72600 74474
L72591 74549
L72206 74624
" />
<path d="M72895 74811
L72928 74849
L72886 74886
L72853 74849
L72895 74811
L72886 74886
" />
<path d="M72947 74399
L72980 74436
L72937 74474
L72905 74436
L72947 74399
L72937 74474
" />
<path d="M73959 74099
L73879 74736
L73908 74811
L73940 74849
L74011 74886
L74161 74886
L74240 74849
L74283 74811
L74329 74736
L74409 74099
" />
<path d="M74751 74361
L74686 74886
" />
<path d="M74742 74436
L74784 74399
L74864 74361
L74976 74361
L75046 74399
L75075 74474
L75023 74886
" />
<path d="M75398 74886
L75464 74361
" />
<path d="M75496 74099
L75454 74136
L75487 74174
L75529 74136
L75496 74099
L75487 74174
" />
<path d="M75740 74849
L75848 74886
L76035 74886
L76115 74849
L76157 74811
L76204 74736
L76214 74661
L76185 74586
L76153 74549
L76082 74511
L75937 74474
L75867 74436
L75834 74399
L75806 74324
L75815 74249
L75862 74174
L75904 74136
L75984 74099
L76171 74099
L76279 74136
" />
<path d="M76860 74886
L76912 74474
L76884 74399
L76813 74361
L76663 74361
L76584 74399
" />
<path d="M76865 74849
L76785 74886
L76598 74886
L76528 74849
L76499 74774
L76509 74699
L76556 74624
L76635 74586
L76823 74586
L76903 74549
" />
<path d="M77188 74361
L77488 74361
" />
<path d="M77334 74099
L77249 74774
L77277 74849
L77348 74886
L77423 74886
" />
<path d="M78384 74099
L78304 74736
L78332 74811
L78365 74849
L78435 74886
L78585 74886
L78665 74849
L78707 74811
L78754 74736
L78834 74099
" />
<path d="M79176 74361
L79110 74886
" />
<path d="M79166 74436
L79208 74399
L79288 74361
L79401 74361
L79471 74399
L79499 74474
L79447 74886
" />
<path d="M79822 74886
L79888 74361
" />
<path d="M79921 74099
L79879 74136
L79912 74174
L79954 74136
L79921 74099
L79912 74174
" />
<path d="M80511 74474
L80619 74511
L80652 74549
L80680 74624
L80666 74736
L80619 74811
L80577 74849
L80497 74886
L80197 74886
L80296 74099
L80558 74099
L80629 74136
L80661 74174
L80690 74249
L80680 74324
L80633 74399
L80591 74436
L80511 74474
L80249 74474
" />
<path d="M81097 74886
L81027 74849
L80994 74811
L80966 74736
L80994 74511
L81041 74436
L81083 74399
L81163 74361
L81275 74361
L81346 74399
L81379 74436
L81407 74511
L81379 74736
L81332 74811
L81289 74849
L81210 74886
L81097 74886
" />
<path d="M82035 74886
L82086 74474
L82058 74399
L81988 74361
L81838 74361
L81758 74399
" />
<path d="M82039 74849
L81960 74886
L81772 74886
L81702 74849
L81674 74774
L81683 74699
L81730 74624
L81810 74586
L81997 74586
L82077 74549
" />
<path d="M82410 74886
L82475 74361
" />
<path d="M82456 74511
L82503 74436
L82546 74399
L82625 74361
L82700 74361
" />
<path d="M83235 74886
L83333 74099
" />
<path d="M83239 74849
L83160 74886
L83010 74886
L82939 74849
L82906 74811
L82878 74736
L82906 74511
L82953 74436
L82995 74399
L83075 74361
L83225 74361
L83295 74399
" />
</g>
<g style="fill:#000000; fill-opacity:0.0; 
stroke:#000000; stroke-width:39.3701; stroke-opacity:1; 
stroke-linecap:round; stroke-linejoin:round;">
</g>
<g style="fill:#000000; fill-opacity:0.0; 
stroke:#000000; stroke-width:59.0551; stroke-opacity:1; 
stroke-linecap:round; stroke-linejoin:round;">
<text x="70079.6" y="73408.3"
textLength="11172.1" font-size="787.402" lengthAdjust="spacingAndGlyphs"
text-anchor="start" opacity="0">File: UniBoard.kicad_pcb</text>
<path d="M70446 73070
L70249 73070
" />
<path d="M70249 73380
L70249 72789
L70530 72789
" />
<path d="M70755 73380
L70755 72986
" />
<path d="M70755 72789
L70727 72817
L70755 72845
L70784 72817
L70755 72789
L70755 72845
" />
<path d="M71121 73380
L71065 73352
L71037 73295
L71037 72789
" />
<path d="M71571 73352
L71515 73380
L71402 73380
L71346 73352
L71318 73295
L71318 73070
L71346 73014
L71402 72986
L71515 72986
L71571 73014
L71599 73070
L71599 73127
L71318 73183
" />
<path d="M71852 73323
L71880 73352
L71852 73380
L71824 73352
L71852 73323
L71852 73380
" />
<path d="M71852 73014
L71880 73042
L71852 73070
L71824 73042
L71852 73014
L71852 73070
" />
<path d="M72583 72789
L72583 73267
L72611 73323
L72640 73352
L72696 73380
L72808 73380
L72865 73352
L72893 73323
L72921 73267
L72921 72789
" />
<path d="M73202 72986
L73202 73380
" />
<path d="M73202 73042
L73230 73014
L73286 72986
L73371 72986
L73427 73014
L73455 73070
L73455 73380
" />
<path d="M73736 73380
L73736 72986
" />
<path d="M73736 72789
L73708 72817
L73736 72845
L73764 72817
L73736 72789
L73736 72845
" />
<path d="M74214 73070
L74299 73099
L74327 73127
L74355 73183
L74355 73267
L74327 73323
L74299 73352
L74242 73380
L74018 73380
L74018 72789
L74214 72789
L74271 72817
L74299 72845
L74327 72902
L74327 72958
L74299 73014
L74271 73042
L74214 73070
L74018 73070
" />
<path d="M74692 73380
L74636 73352
L74608 73323
L74580 73267
L74580 73099
L74608 73042
L74636 73014
L74692 72986
L74777 72986
L74833 73014
L74861 73042
L74889 73099
L74889 73267
L74861 73323
L74833 73352
L74777 73380
L74692 73380
" />
<path d="M75395 73380
L75395 73070
L75367 73014
L75311 72986
L75199 72986
L75142 73014
" />
<path d="M75395 73352
L75339 73380
L75199 73380
L75142 73352
L75114 73295
L75114 73239
L75142 73183
L75199 73155
L75339 73155
L75395 73127
" />
<path d="M75677 73380
L75677 72986
" />
<path d="M75677 73099
L75705 73042
L75733 73014
L75789 72986
L75845 72986
" />
<path d="M76295 73380
L76295 72789
" />
<path d="M76295 73352
L76239 73380
L76127 73380
L76070 73352
L76042 73323
L76014 73267
L76014 73099
L76042 73042
L76070 73014
L76127 72986
L76239 72986
L76295 73014
" />
<path d="M76577 73323
L76605 73352
L76577 73380
L76548 73352
L76577 73323
L76577 73380
" />
<path d="M76858 73380
L76858 72789
" />
<path d="M76914 73155
L77083 73380
" />
<path d="M77083 72986
L76858 73211
" />
<path d="M77336 73380
L77336 72986
" />
<path d="M77336 72789
L77308 72817
L77336 72845
L77364 72817
L77336 72789
L77336 72845
" />
<path d="M77870 73352
L77814 73380
L77701 73380
L77645 73352
L77617 73323
L77589 73267
L77589 73099
L77617 73042
L77645 73014
L77701 72986
L77814 72986
L77870 73014
" />
<path d="M78376 73380
L78376 73070
L78348 73014
L78292 72986
L78180 72986
L78123 73014
" />
<path d="M78376 73352
L78320 73380
L78180 73380
L78123 73352
L78095 73295
L78095 73239
L78123 73183
L78180 73155
L78320 73155
L78376 73127
" />
<path d="M78911 73380
L78911 72789
" />
<path d="M78911 73352
L78854 73380
L78742 73380
L78686 73352
L78658 73323
L78629 73267
L78629 73099
L78658 73042
L78686 73014
L78742 72986
L78854 72986
L78911 73014
" />
<path d="M79051 73436
L79501 73436
" />
<path d="M79642 72986
L79642 73577
" />
<path d="M79642 73014
L79698 72986
L79811 72986
L79867 73014
L79895 73042
L79923 73099
L79923 73267
L79895 73323
L79867 73352
L79811 73380
L79698 73380
L79642 73352
" />
<path d="M80429 73352
L80373 73380
L80260 73380
L80204 73352
L80176 73323
L80148 73267
L80148 73099
L80176 73042
L80204 73014
L80260 72986
L80373 72986
L80429 73014
" />
<path d="M80682 73380
L80682 72789
" />
<path d="M80682 73014
L80739 72986
L80851 72986
L80907 73014
L80935 73042
L80964 73099
L80964 73267
L80935 73323
L80907 73352
L80851 73380
L80739 73380
L80682 73352
" />
</g>
<g style="fill:#000000; fill-opacity:0.0; 
stroke:#000000; stroke-width:39.3701; stroke-opacity:1; 
stroke-linecap:round; stroke-linejoin:round;">
</g>
<g style="fill:#000000; fill-opacity:0.0; 
stroke:#000000; stroke-width:59.0551; stroke-opacity:1; 
stroke-linecap:round; stroke-linejoin:round;">
<path d="M69685 71459
L112205 71459
" />
</g>
<g style="fill:#000000; fill-opacity:0.0; 
stroke:#000000; stroke-width:39.3701; stroke-opacity:1; 
stroke-linecap:round; stroke-linejoin:round;">
</g>
<g style="fill:#000000; fill-opacity:0.0; 
stroke:#000000; stroke-width:59.0551; stroke-opacity:1; 
stroke-linecap:round; stroke-linejoin:round;">
<text x="70079.6" y="72345.4"
textLength="3236.78" font-size="787.402" lengthAdjust="spacingAndGlyphs"
text-anchor="start" opacity="0">Sheet: </text>
<path d="M70221 72289
L70305 72317
L70446 72317
L70502 72289
L70530 72260
L70559 72204
L70559 72148
L70530 72092
L70502 72064
L70446 72036
L70334 72007
L70277 71979
L70249 71951
L70221 71895
L70221 71839
L70249 71782
L70277 71754
L70334 71726
L70474 71726
L70559 71754
" />
<path d="M70812 72317
L70812 71726
" />
<path d="M71065 72317
L71065 72007
L71037 71951
L70980 71923
L70896 71923
L70840 71951
L70812 71979
" />
<path d="M71571 72289
L71515 72317
L71402 72317
L71346 72289
L71318 72232
L71318 72007
L71346 71951
L71402 71923
L71515 71923
L71571 71951
L71599 72007
L71599 72064
L71318 72120
" />
<path d="M72077 72289
L72021 72317
L71908 72317
L71852 72289
L71824 72232
L71824 72007
L71852 71951
L71908 71923
L72021 71923
L72077 71951
L72105 72007
L72105 72064
L71824 72120
" />
<path d="M72274 71923
L72499 71923
" />
<path d="M72358 71726
L72358 72232
L72386 72289
L72443 72317
L72499 72317
" />
<path d="M72696 72260
L72724 72289
L72696 72317
L72668 72289
L72696 72260
L72696 72317
" />
<path d="M72696 71951
L72724 71979
L72696 72007
L72668 71979
L72696 71951
L72696 72007
" />
</g>
<g style="fill:#000000; fill-opacity:0.0; 
stroke:#000000; stroke-width:39.3701; stroke-opacity:1; 
stroke-linecap:round; stroke-linejoin:round;">
</g>
<g style="fill:#000000; fill-opacity:0.0; 
stroke:#000000; stroke-width:118.11; stroke-opacity:1; 
stroke-linecap:round; stroke-linejoin:round;">
<text x="70079.6" y="71164.3"
textLength="25171.5" font-size="787.402" lengthAdjust="spacingAndGlyphs"
text-anchor="start" opacity="0">UniSat Nano-satellite Educational Programme for Girls</text>
<path d="M70296 70545
L70296 71023
L70325 71079
L70353 71108
L70409 71136
L70521 71136
L70578 71108
L70606 71079
L70634 71023
L70634 70545
" />
<path d="M70915 70742
L70915 71136
" />
<path d="M70915 70798
L70943 70770
L71000 70742
L71084 70742
L71140 70770
L71168 70826
L71168 71136
" />
<path d="M71449 71136
L71449 70742
" />
<path d="M71449 70545
L71421 70573
L71449 70601
L71478 70573
L71449 70545
L71449 70601
" />
<path d="M71703 71108
L71787 71136
L71928 71136
L71984 71108
L72012 71079
L72040 71023
L72040 70967
L72012 70911
L71984 70883
L71928 70854
L71815 70826
L71759 70798
L71731 70770
L71703 70714
L71703 70658
L71731 70601
L71759 70573
L71815 70545
L71956 70545
L72040 70573
" />
<path d="M72546 71136
L72546 70826
L72518 70770
L72462 70742
L72349 70742
L72293 70770
" />
<path d="M72546 71108
L72490 71136
L72349 71136
L72293 71108
L72265 71051
L72265 70995
L72293 70939
L72349 70911
L72490 70911
L72546 70883
" />
<path d="M72743 70742
L72968 70742
" />
<path d="M72827 70545
L72827 71051
L72856 71108
L72912 71136
L72968 71136
" />
<path d="M73615 71136
L73615 70545
L73952 71136
L73952 70545
" />
<path d="M74487 71136
L74487 70826
L74458 70770
L74402 70742
L74290 70742
L74233 70770
" />
<path d="M74487 71108
L74430 71136
L74290 71136
L74233 71108
L74205 71051
L74205 70995
L74233 70939
L74290 70911
L74430 70911
L74487 70883
" />
<path d="M74768 70742
L74768 71136
" />
<path d="M74768 70798
L74796 70770
L74852 70742
L74937 70742
L74993 70770
L75021 70826
L75021 71136
" />
<path d="M75386 71136
L75330 71108
L75302 71079
L75274 71023
L75274 70854
L75302 70798
L75330 70770
L75386 70742
L75471 70742
L75527 70770
L75555 70798
L75583 70854
L75583 71023
L75555 71079
L75527 71108
L75471 71136
L75386 71136
" />
<path d="M75836 70911
L76286 70911
" />
<path d="M76539 71108
L76596 71136
L76708 71136
L76764 71108
L76793 71051
L76793 71023
L76764 70967
L76708 70939
L76624 70939
L76568 70911
L76539 70854
L76539 70826
L76568 70770
L76624 70742
L76708 70742
L76764 70770
" />
<path d="M77299 71136
L77299 70826
L77271 70770
L77214 70742
L77102 70742
L77046 70770
" />
<path d="M77299 71108
L77242 71136
L77102 71136
L77046 71108
L77018 71051
L77018 70995
L77046 70939
L77102 70911
L77242 70911
L77299 70883
" />
<path d="M77496 70742
L77721 70742
" />
<path d="M77580 70545
L77580 71051
L77608 71108
L77664 71136
L77721 71136
" />
<path d="M78142 71108
L78086 71136
L77974 71136
L77917 71108
L77889 71051
L77889 70826
L77917 70770
L77974 70742
L78086 70742
L78142 70770
L78171 70826
L78171 70883
L77889 70939
" />
<path d="M78508 71136
L78452 71108
L78424 71051
L78424 70545
" />
<path d="M78817 71136
L78761 71108
L78733 71051
L78733 70545
" />
<path d="M79042 71136
L79042 70742
" />
<path d="M79042 70545
L79014 70573
L79042 70601
L79070 70573
L79042 70545
L79042 70601
" />
<path d="M79239 70742
L79464 70742
" />
<path d="M79323 70545
L79323 71051
L79352 71108
L79408 71136
L79464 71136
" />
<path d="M79886 71108
L79830 71136
L79717 71136
L79661 71108
L79633 71051
L79633 70826
L79661 70770
L79717 70742
L79830 70742
L79886 70770
L79914 70826
L79914 70883
L79633 70939
" />
<path d="M80617 70826
L80814 70826
" />
<path d="M80898 71136
L80617 71136
L80617 70545
L80898 70545
" />
<path d="M81404 71136
L81404 70545
" />
<path d="M81404 71108
L81348 71136
L81236 71136
L81180 71108
L81151 71079
L81123 71023
L81123 70854
L81151 70798
L81180 70770
L81236 70742
L81348 70742
L81404 70770
" />
<path d="M81939 70742
L81939 71136
" />
<path d="M81686 70742
L81686 71051
L81714 71108
L81770 71136
L81854 71136
L81911 71108
L81939 71079
" />
<path d="M82473 71108
L82417 71136
L82304 71136
L82248 71108
L82220 71079
L82192 71023
L82192 70854
L82220 70798
L82248 70770
L82304 70742
L82417 70742
L82473 70770
" />
<path d="M82979 71136
L82979 70826
L82951 70770
L82895 70742
L82782 70742
L82726 70770
" />
<path d="M82979 71108
L82923 71136
L82782 71136
L82726 71108
L82698 71051
L82698 70995
L82726 70939
L82782 70911
L82923 70911
L82979 70883
" />
<path d="M83176 70742
L83401 70742
" />
<path d="M83260 70545
L83260 71051
L83289 71108
L83345 71136
L83401 71136
" />
<path d="M83598 71136
L83598 70742
" />
<path d="M83598 70545
L83570 70573
L83598 70601
L83626 70573
L83598 70545
L83598 70601
" />
<path d="M83964 71136
L83907 71108
L83879 71079
L83851 71023
L83851 70854
L83879 70798
L83907 70770
L83964 70742
L84048 70742
L84104 70770
L84132 70798
L84160 70854
L84160 71023
L84132 71079
L84104 71108
L84048 71136
L83964 71136
" />
<path d="M84413 70742
L84413 71136
" />
<path d="M84413 70798
L84442 70770
L84498 70742
L84582 70742
L84638 70770
L84667 70826
L84667 71136
" />
<path d="M85201 71136
L85201 70826
L85173 70770
L85117 70742
L85004 70742
L84948 70770
" />
<path d="M85201 71108
L85145 71136
L85004 71136
L84948 71108
L84920 71051
L84920 70995
L84948 70939
L85004 70911
L85145 70911
L85201 70883
" />
<path d="M85566 71136
L85510 71108
L85482 71051
L85482 70545
" />
<path d="M86241 71136
L86241 70545
L86466 70545
L86523 70573
L86551 70601
L86579 70658
L86579 70742
L86551 70798
L86523 70826
L86466 70854
L86241 70854
" />
<path d="M86832 71136
L86832 70742
" />
<path d="M86832 70854
L86860 70798
L86888 70770
L86944 70742
L87001 70742
" />
<path d="M87282 71136
L87226 71108
L87197 71079
L87169 71023
L87169 70854
L87197 70798
L87226 70770
L87282 70742
L87366 70742
L87422 70770
L87451 70798
L87479 70854
L87479 71023
L87451 71079
L87422 71108
L87366 71136
L87282 71136
" />
<path d="M87985 70742
L87985 71220
L87957 71276
L87929 71304
L87872 71332
L87788 71332
L87732 71304
" />
<path d="M87985 71108
L87929 71136
L87816 71136
L87760 71108
L87732 71079
L87704 71023
L87704 70854
L87732 70798
L87760 70770
L87816 70742
L87929 70742
L87985 70770
" />
<path d="M88266 71136
L88266 70742
" />
<path d="M88266 70854
L88294 70798
L88322 70770
L88379 70742
L88435 70742
" />
<path d="M88885 71136
L88885 70826
L88857 70770
L88800 70742
L88688 70742
L88632 70770
" />
<path d="M88885 71108
L88829 71136
L88688 71136
L88632 71108
L88604 71051
L88604 70995
L88632 70939
L88688 70911
L88829 70911
L88885 70883
" />
<path d="M89166 71136
L89166 70742
" />
<path d="M89166 70798
L89194 70770
L89250 70742
L89335 70742
L89391 70770
L89419 70826
L89419 71136
" />
<path d="M89419 70826
L89447 70770
L89503 70742
L89588 70742
L89644 70770
L89672 70826
L89672 71136
" />
<path d="M89953 71136
L89953 70742
" />
<path d="M89953 70798
L89982 70770
L90038 70742
L90122 70742
L90178 70770
L90206 70826
L90206 71136
" />
<path d="M90206 70826
L90235 70770
L90291 70742
L90375 70742
L90431 70770
L90460 70826
L90460 71136
" />
<path d="M90966 71108
L90910 71136
L90797 71136
L90741 71108
L90713 71051
L90713 70826
L90741 70770
L90797 70742
L90910 70742
L90966 70770
L90994 70826
L90994 70883
L90713 70939
" />
<path d="M91613 70742
L91838 70742
" />
<path d="M91697 71136
L91697 70629
L91725 70573
L91781 70545
L91838 70545
" />
<path d="M92119 71136
L92063 71108
L92034 71079
L92006 71023
L92006 70854
L92034 70798
L92063 70770
L92119 70742
L92203 70742
L92259 70770
L92287 70798
L92316 70854
L92316 71023
L92287 71079
L92259 71108
L92203 71136
L92119 71136
" />
<path d="M92569 71136
L92569 70742
" />
<path d="M92569 70854
L92597 70798
L92625 70770
L92681 70742
L92737 70742
" />
<path d="M93694 70573
L93637 70545
L93553 70545
L93469 70573
L93412 70629
L93384 70686
L93356 70798
L93356 70883
L93384 70995
L93412 71051
L93469 71108
L93553 71136
L93609 71136
L93694 71108
L93722 71079
L93722 70883
L93609 70883
" />
<path d="M93975 71136
L93975 70742
" />
<path d="M93975 70545
L93947 70573
L93975 70601
L94003 70573
L93975 70545
L93975 70601
" />
<path d="M94256 71136
L94256 70742
" />
<path d="M94256 70854
L94284 70798
L94312 70770
L94368 70742
L94425 70742
" />
<path d="M94706 71136
L94650 71108
L94622 71051
L94622 70545
" />
<path d="M94903 71108
L94959 71136
L95072 71136
L95128 71108
L95156 71051
L95156 71023
L95128 70967
L95072 70939
L94987 70939
L94931 70911
L94903 70854
L94903 70826
L94931 70770
L94987 70742
L95072 70742
L95128 70770
" />
</g>
<g style="fill:#000000; fill-opacity:0.0; 
stroke:#000000; stroke-width:39.3701; stroke-opacity:1; 
stroke-linecap:round; stroke-linejoin:round;">
</g>
<g style="fill:#000000; fill-opacity:0.0; 
stroke:#000000; stroke-width:59.0551; stroke-opacity:1; 
stroke-linecap:round; stroke-linejoin:round;">
<text x="70079.6" y="67620.9"
textLength="6059.06" font-size="787.402" lengthAdjust="spacingAndGlyphs"
text-anchor="start" opacity="0">Almaty, 2021</text>
<path d="M70221 67424
L70502 67424
" />
<path d="M70165 67592
L70362 67002
L70559 67592
" />
<path d="M70840 67592
L70784 67564
L70755 67508
L70755 67002
" />
<path d="M71065 67592
L71065 67199
" />
<path d="M71065 67255
L71093 67227
L71149 67199
L71233 67199
L71290 67227
L71318 67283
L71318 67592
" />
<path d="M71318 67283
L71346 67227
L71402 67199
L71487 67199
L71543 67227
L71571 67283
L71571 67592
" />
<path d="M72105 67592
L72105 67283
L72077 67227
L72021 67199
L71908 67199
L71852 67227
" />
<path d="M72105 67564
L72049 67592
L71908 67592
L71852 67564
L71824 67508
L71824 67452
L71852 67395
L71908 67367
L72049 67367
L72105 67339
" />
<path d="M72302 67199
L72527 67199
" />
<path d="M72386 67002
L72386 67508
L72415 67564
L72471 67592
L72527 67592
" />
<path d="M72668 67199
L72808 67592
" />
<path d="M72949 67199
L72808 67592
L72752 67733
L72724 67761
L72668 67789
" />
<path d="M73202 67564
L73202 67592
L73174 67649
L73146 67677
" />
<path d="M73877 67058
L73905 67030
L73961 67002
L74102 67002
L74158 67030
L74186 67058
L74214 67114
L74214 67171
L74186 67255
L73849 67592
L74214 67592
" />
<path d="M74580 67002
L74636 67002
L74692 67030
L74721 67058
L74749 67114
L74777 67227
L74777 67367
L74749 67480
L74721 67536
L74692 67564
L74636 67592
L74580 67592
L74524 67564
L74496 67536
L74467 67480
L74439 67367
L74439 67227
L74467 67114
L74496 67058
L74524 67030
L74580 67002
" />
<path d="M75002 67058
L75030 67030
L75086 67002
L75227 67002
L75283 67030
L75311 67058
L75339 67114
L75339 67171
L75311 67255
L74974 67592
L75339 67592
" />
<path d="M75902 67592
L75564 67592
" />
<path d="M75733 67592
L75733 67002
L75677 67086
L75620 67142
L75564 67171
" />
</g>
<g style="fill:#000000; fill-opacity:0.0; 
stroke:#000000; stroke-width:39.3701; stroke-opacity:1; 
stroke-linecap:round; stroke-linejoin:round;">
</g>
<g style="fill:#000000; fill-opacity:0.0; 
stroke:#000000; stroke-width:59.0551; stroke-opacity:1; 
stroke-linecap:round; stroke-linejoin:round;">
<text x="70079.6" y="66439.8"
textLength="12404.4" font-size="787.402" lengthAdjust="spacingAndGlyphs"
text-anchor="start" opacity="0">by Yaakov Azat (@azataiot)</text>
<path d="M70249 66411
L70249 65821
" />
<path d="M70249 66046
L70305 66018
L70418 66018
L70474 66046
L70502 66074
L70530 66130
L70530 66299
L70502 66355
L70474 66383
L70418 66411
L70305 66411
L70249 66383
" />
<path d="M70727 66018
L70868 66411
" />
<path d="M71009 66018
L70868 66411
L70812 66552
L70784 66580
L70727 66608
" />
<path d="M71796 66130
L71796 66411
" />
<path d="M71599 65821
L71796 66130
L71993 65821
" />
<path d="M72443 66411
L72443 66102
L72415 66046
L72358 66018
L72246 66018
L72190 66046
" />
<path d="M72443 66383
L72386 66411
L72246 66411
L72190 66383
L72162 66327
L72162 66271
L72190 66214
L72246 66186
L72386 66186
L72443 66158
" />
<path d="M72977 66411
L72977 66102
L72949 66046
L72893 66018
L72780 66018
L72724 66046
" />
<path d="M72977 66383
L72921 66411
L72780 66411
L72724 66383
L72696 66327
L72696 66271
L72724 66214
L72780 66186
L72921 66186
L72977 66158
" />
<path d="M73258 66411
L73258 65821
" />
<path d="M73314 66186
L73483 66411
" />
<path d="M73483 66018
L73258 66242
" />
<path d="M73821 66411
L73764 66383
L73736 66355
L73708 66299
L73708 66130
L73736 66074
L73764 66046
L73821 66018
L73905 66018
L73961 66046
L73989 66074
L74018 66130
L74018 66299
L73989 66355
L73961 66383
L73905 66411
L73821 66411
" />
<path d="M74214 66018
L74355 66411
L74496 66018
" />
<path d="M75142 66242
L75424 66242
" />
<path d="M75086 66411
L75283 65821
L75480 66411
" />
<path d="M75620 66018
L75930 66018
L75620 66411
L75930 66411
" />
<path d="M76408 66411
L76408 66102
L76380 66046
L76323 66018
L76211 66018
L76155 66046
" />
<path d="M76408 66383
L76352 66411
L76211 66411
L76155 66383
L76127 66327
L76127 66271
L76155 66214
L76211 66186
L76352 66186
L76408 66158
" />
<path d="M76605 66018
L76830 66018
" />
<path d="M76689 65821
L76689 66327
L76717 66383
L76773 66411
L76830 66411
" />
<path d="M77645 66636
L77617 66608
L77561 66524
L77533 66467
L77505 66383
L77476 66242
L77476 66130
L77505 65989
L77533 65905
L77561 65849
L77617 65764
L77645 65736
" />
<path d="M78236 66130
L78208 66102
L78151 66074
L78095 66074
L78039 66102
L78011 66130
L77983 66186
L77983 66242
L78011 66299
L78039 66327
L78095 66355
L78151 66355
L78208 66327
L78236 66299
" />
<path d="M78236 66074
L78236 66299
L78264 66327
L78292 66327
L78348 66299
L78376 66242
L78376 66102
L78320 66018
L78236 65961
L78123 65933
L78011 65961
L77926 66018
L77870 66102
L77842 66214
L77870 66327
L77926 66411
L78011 66467
L78123 66496
L78236 66467
L78320 66411
" />
<path d="M78883 66411
L78883 66102
L78854 66046
L78798 66018
L78686 66018
L78629 66046
" />
<path d="M78883 66383
L78826 66411
L78686 66411
L78629 66383
L78601 66327
L78601 66271
L78629 66214
L78686 66186
L78826 66186
L78883 66158
" />
<path d="M79108 66018
L79417 66018
L79108 66411
L79417 66411
" />
<path d="M79895 66411
L79895 66102
L79867 66046
L79811 66018
L79698 66018
L79642 66046
" />
<path d="M79895 66383
L79839 66411
L79698 66411
L79642 66383
L79614 66327
L79614 66271
L79642 66214
L79698 66186
L79839 66186
L79895 66158
" />
<path d="M80092 66018
L80317 66018
" />
<path d="M80176 65821
L80176 66327
L80204 66383
L80260 66411
L80317 66411
" />
<path d="M80767 66411
L80767 66102
L80739 66046
L80682 66018
L80570 66018
L80514 66046
" />
<path d="M80767 66383
L80710 66411
L80570 66411
L80514 66383
L80485 66327
L80485 66271
L80514 66214
L80570 66186
L80710 66186
L80767 66158
" />
<path d="M81048 66411
L81048 66018
" />
<path d="M81048 65821
L81020 65849
L81048 65877
L81076 65849
L81048 65821
L81048 65877
" />
<path d="M81413 66411
L81357 66383
L81329 66355
L81301 66299
L81301 66130
L81329 66074
L81357 66046
L81413 66018
L81498 66018
L81554 66046
L81582 66074
L81610 66130
L81610 66299
L81582 66355
L81554 66383
L81498 66411
L81413 66411
" />
<path d="M81779 66018
L82004 66018
" />
<path d="M81863 65821
L81863 66327
L81892 66383
L81948 66411
L82004 66411
" />
<path d="M82145 66636
L82173 66608
L82229 66524
L82257 66467
L82285 66383
L82313 66242
L82313 66130
L82285 65989
L82257 65905
L82229 65849
L82173 65764
L82145 65736
" />
</g>
<g style="fill:#000000; fill-opacity:0.0; 
stroke:#000000; stroke-width:39.3701; stroke-opacity:1; 
stroke-linecap:round; stroke-linejoin:round;">
</g>
<g style="fill:#000000; fill-opacity:0.0; 
stroke:#000000; stroke-width:59.0551; stroke-opacity:1; 
stroke-linecap:round; stroke-linejoin:round;">
<path d="M77559 75396
L77559 76577
" />
</g>
<g style="fill:#000000; fill-opacity:0.0; 
stroke:#000000; stroke-width:39.3701; stroke-opacity:1; 
stroke-linecap:round; stroke-linejoin:round;">
</g>
<g style="fill:#000000; fill-opacity:0.0; 
stroke:#000000; stroke-width:59.0551; stroke-opacity:1; 
stroke-linecap:round; stroke-linejoin:round;">
<path d="M102756 75396
L102756 77955
" />
</g>
<g style="fill:#840084; fill-opacity:0.0; 
stroke:#840084; stroke-width:59.0551; stroke-opacity:1; 
stroke-linecap:round; stroke-linejoin:round;">
<text x="57011.8" y="51204.7"
transform="scale(-1 1) translate(-114023.622047 0)"
textLength="5059.06" font-size="524.934" lengthAdjust="spacingAndGlyphs"
text-anchor="middle" opacity="0">https://unisat.kz</text>
<path d="M59477 51185
L59477 50792
" />
<path d="M59308 51185
L59308 50979
L59327 50942
L59364 50923
L59420 50923
L59458 50942
L59477 50961
" />
<path d="M59177 50923
L59027 50923
" />
<path d="M59120 50792
L59120 51129
L59102 51167
L59064 51185
L59027 51185
" />
<path d="M58952 50923
L58802 50923
" />
<path d="M58895 50792
L58895 51129
L58877 51167
L58839 51185
L58802 51185
" />
<path d="M58670 50923
L58670 51317
" />
<path d="M58670 50942
L58633 50923
L58558 50923
L58520 50942
L58502 50961
L58483 50998
L58483 51110
L58502 51148
L58520 51167
L58558 51185
L58633 51185
L58670 51167
" />
<path d="M58333 51167
L58296 51185
L58221 51185
L58183 51167
L58164 51129
L58164 51110
L58183 51073
L58221 51054
L58277 51054
L58314 51035
L58333 50998
L58333 50979
L58314 50942
L58277 50923
L58221 50923
L58183 50942
" />
<path d="M57996 51148
L57977 51167
L57996 51185
L58014 51167
L57996 51148
L57996 51185
" />
<path d="M57996 50942
L57977 50961
L57996 50979
L58014 50961
L57996 50942
L57996 50979
" />
<path d="M57527 50773
L57864 51279
" />
<path d="M57114 50773
L57452 51279
" />
<path d="M56814 50923
L56814 51185
" />
<path d="M56983 50923
L56983 51129
L56964 51167
L56927 51185
L56871 51185
L56833 51167
L56814 51148
" />
<path d="M56627 50923
L56627 51185
" />
<path d="M56627 50961
L56608 50942
L56571 50923
L56514 50923
L56477 50942
L56458 50979
L56458 51185
" />
<path d="M56271 51185
L56271 50923
" />
<path d="M56271 50792
L56290 50811
L56271 50829
L56252 50811
L56271 50792
L56271 50829
" />
<path d="M56102 51167
L56065 51185
L55990 51185
L55952 51167
L55933 51129
L55933 51110
L55952 51073
L55990 51054
L56046 51054
L56083 51035
L56102 50998
L56102 50979
L56083 50942
L56046 50923
L55990 50923
L55952 50942
" />
<path d="M55596 51185
L55596 50979
L55615 50942
L55652 50923
L55727 50923
L55765 50942
" />
<path d="M55596 51167
L55633 51185
L55727 51185
L55765 51167
L55783 51129
L55783 51092
L55765 51054
L55727 51035
L55633 51035
L55596 51017
" />
<path d="M55465 50923
L55315 50923
" />
<path d="M55408 50792
L55408 51129
L55390 51167
L55352 51185
L55315 51185
" />
<path d="M55183 51148
L55165 51167
L55183 51185
L55202 51167
L55183 51148
L55183 51185
" />
<path d="M54996 51185
L54996 50792
" />
<path d="M54958 51035
L54846 51185
" />
<path d="M54846 50923
L54996 51073
" />
<path d="M54715 50923
L54508 50923
L54715 51185
L54508 51185
" />
<g transform="rotate(90 46149.6 18606.3)">
<text x="46149.6" y="18803.1"
transform="scale(-1 1) translate(-92299.212598 0)"
textLength="673.135" font-size="524.934" lengthAdjust="spacingAndGlyphs"
text-anchor="middle" opacity="0">39</text>
</g>
<path d="M46365 18925
L46365 18681
L46215 18812
L46215 18756
L46196 18718
L46177 18700
L46140 18681
L46046 18681
L46008 18700
L45990 18718
L45971 18756
L45971 18868
L45990 18906
L46008 18925
" />
<path d="M45971 18493
L45971 18418
L45990 18381
L46008 18362
L46065 18325
L46140 18306
L46290 18306
L46327 18325
L46346 18343
L46365 18381
L46365 18456
L46346 18493
L46327 18512
L46290 18531
L46196 18531
L46158 18512
L46140 18493
L46121 18456
L46121 18381
L46140 18343
L46158 18325
L46196 18306
" />
<g transform="rotate(90 46181.1 19574.8)">
<text x="46181.1" y="19771.7"
transform="scale(-1 1) translate(-92362.204724 0)"
textLength="673.135" font-size="524.934" lengthAdjust="spacingAndGlyphs"
text-anchor="middle" opacity="0">40</text>
</g>
<path d="M46265 19687
L46002 19687
" />
<path d="M46415 19781
L46134 19874
L46134 19631
" />
<path d="M46396 19406
L46396 19368
L46377 19331
L46359 19312
L46321 19293
L46246 19274
L46152 19274
L46077 19293
L46040 19312
L46021 19331
L46002 19368
L46002 19406
L46021 19443
L46040 19462
L46077 19481
L46152 19499
L46246 19499
L46321 19481
L46359 19462
L46377 19443
L46396 19406
" />
<g transform="rotate(90 66736.2 19574.8)">
<text x="66736.2" y="19771.7"
transform="scale(-1 1) translate(-133472.440945 0)"
textLength="298.181" font-size="524.934" lengthAdjust="spacingAndGlyphs"
text-anchor="middle" opacity="0">2</text>
</g>
<path d="M66914 19687
L66933 19668
L66951 19631
L66951 19537
L66933 19499
L66914 19481
L66876 19462
L66839 19462
L66783 19481
L66558 19706
L66558 19462
" />
<g transform="rotate(-270 66736.2 18578.7)">
<text x="66736.2" y="18775.6"
transform="scale(-1 1) translate(-133472.440945 0)"
textLength="298.181" font-size="524.934" lengthAdjust="spacingAndGlyphs"
text-anchor="middle" opacity="0">1</text>
</g>
<path d="M66558 18466
L66558 18691
" />
<path d="M66558 18578
L66951 18578
L66895 18616
L66858 18653
L66839 18691
" />
<g transform="rotate(90 65964.6 22905.5)">
<text x="65964.6" y="23102.4"
transform="scale(-1 1) translate(-131929.133858 0)"
textLength="2285.43" font-size="524.934" lengthAdjust="spacingAndGlyphs"
text-anchor="start" opacity="0">I2C SDA</text>
</g>
<path d="M65786 22773
L66180 22773
" />
<path d="M66142 22604
L66161 22585
L66180 22548
L66180 22454
L66161 22417
L66142 22398
L66105 22379
L66067 22379
L66011 22398
L65786 22623
L65786 22379
" />
<path d="M65823 21985
L65805 22004
L65786 22060
L65786 22098
L65805 22154
L65842 22192
L65880 22210
L65955 22229
L66011 22229
L66086 22210
L66123 22192
L66161 22154
L66180 22098
L66180 22060
L66161 22004
L66142 21985
" />
<path d="M65805 21536
L65786 21479
L65786 21386
L65805 21348
L65823 21329
L65861 21311
L65898 21311
L65936 21329
L65955 21348
L65973 21386
L65992 21461
L66011 21498
L66030 21517
L66067 21536
L66105 21536
L66142 21517
L66161 21498
L66180 21461
L66180 21367
L66161 21311
" />
<path d="M65786 21142
L66180 21142
L66180 21048
L66161 20992
L66123 20954
L66086 20936
L66011 20917
L65955 20917
L65880 20936
L65842 20954
L65805 20992
L65786 21048
L65786 21142
" />
<path d="M65898 20767
L65898 20579
" />
<path d="M65786 20804
L66180 20673
L65786 20542
" />
<g transform="rotate(90 64968.5 22850.4)">
<text x="64968.5" y="23047.2"
transform="scale(-1 1) translate(-129937.007874 0)"
textLength="2266.69" font-size="524.934" lengthAdjust="spacingAndGlyphs"
text-anchor="start" opacity="0">I2C SCL</text>
</g>
<path d="M64790 22718
L65184 22718
" />
<path d="M65146 22549
L65165 22530
L65184 22493
L65184 22399
L65165 22362
L65146 22343
L65109 22324
L65071 22324
L65015 22343
L64790 22568
L64790 22324
" />
<path d="M64827 21930
L64809 21949
L64790 22005
L64790 22043
L64809 22099
L64846 22137
L64884 22155
L64959 22174
L65015 22174
L65090 22155
L65127 22137
L65165 22099
L65184 22043
L65184 22005
L65165 21949
L65146 21930
" />
<path d="M64809 21480
L64790 21424
L64790 21330
L64809 21293
L64827 21274
L64865 21255
L64902 21255
L64940 21274
L64959 21293
L64977 21330
L64996 21405
L65015 21443
L65034 21462
L65071 21480
L65109 21480
L65146 21462
L65165 21443
L65184 21405
L65184 21312
L65165 21255
" />
<path d="M64827 20862
L64809 20880
L64790 20937
L64790 20974
L64809 21030
L64846 21068
L64884 21087
L64959 21105
L65015 21105
L65090 21087
L65127 21068
L65165 21030
L65184 20974
L65184 20937
L65165 20880
L65146 20862
" />
<path d="M64790 20506
L64790 20693
L65184 20693
" />
<g transform="rotate(90 64000 23051.2)">
<text x="64000" y="23248"
transform="scale(-1 1) translate(-128000.000000 0)"
textLength="2454.16" font-size="524.934" lengthAdjust="spacingAndGlyphs"
text-anchor="start" opacity="0">RS485 A</text>
</g>
<path d="M63821 22694
L64009 22825
" />
<path d="M63821 22919
L64215 22919
L64215 22769
L64196 22731
L64178 22712
L64140 22694
L64084 22694
L64046 22712
L64028 22731
L64009 22769
L64009 22919
" />
<path d="M63840 22544
L63821 22487
L63821 22394
L63840 22356
L63859 22337
L63896 22319
L63934 22319
L63971 22337
L63990 22356
L64009 22394
L64028 22469
L64046 22506
L64065 22525
L64103 22544
L64140 22544
L64178 22525
L64196 22506
L64215 22469
L64215 22375
L64196 22319
" />
<path d="M64084 21981
L63821 21981
" />
<path d="M64234 22075
L63953 22169
L63953 21925
" />
<path d="M64046 21719
L64065 21756
L64084 21775
L64121 21794
L64140 21794
L64178 21775
L64196 21756
L64215 21719
L64215 21644
L64196 21606
L64178 21587
L64140 21569
L64121 21569
L64084 21587
L64065 21606
L64046 21644
L64046 21719
L64028 21756
L64009 21775
L63971 21794
L63896 21794
L63859 21775
L63840 21756
L63821 21719
L63821 21644
L63840 21606
L63859 21587
L63896 21569
L63971 21569
L64009 21587
L64028 21606
L64046 21644
" />
<path d="M64215 21213
L64215 21400
L64028 21419
L64046 21400
L64065 21363
L64065 21269
L64046 21231
L64028 21213
L63990 21194
L63896 21194
L63859 21213
L63840 21231
L63821 21269
L63821 21363
L63840 21400
L63859 21419
" />
<path d="M63934 20744
L63934 20556
" />
<path d="M63821 20781
L64215 20650
L63821 20519
" />
<g transform="rotate(90 63090.6 23019.7)">
<text x="63090.6" y="23216.5"
transform="scale(-1 1) translate(-126181.102362 0)"
textLength="2510.41" font-size="524.934" lengthAdjust="spacingAndGlyphs"
text-anchor="start" opacity="0">RS485 B</text>
</g>
<path d="M62912 22662
L63099 22793
" />
<path d="M62912 22887
L63306 22887
L63306 22737
L63287 22700
L63268 22681
L63231 22662
L63174 22662
L63137 22681
L63118 22700
L63099 22737
L63099 22887
" />
<path d="M62931 22512
L62912 22456
L62912 22362
L62931 22325
L62949 22306
L62987 22287
L63024 22287
L63062 22306
L63081 22325
L63099 22362
L63118 22437
L63137 22475
L63156 22493
L63193 22512
L63231 22512
L63268 22493
L63287 22475
L63306 22437
L63306 22343
L63287 22287
" />
<path d="M63174 21950
L62912 21950
" />
<path d="M63324 22043
L63043 22137
L63043 21893
" />
<path d="M63137 21687
L63156 21725
L63174 21743
L63212 21762
L63231 21762
L63268 21743
L63287 21725
L63306 21687
L63306 21612
L63287 21575
L63268 21556
L63231 21537
L63212 21537
L63174 21556
L63156 21575
L63137 21612
L63137 21687
L63118 21725
L63099 21743
L63062 21762
L62987 21762
L62949 21743
L62931 21725
L62912 21687
L62912 21612
L62931 21575
L62949 21556
L62987 21537
L63062 21537
L63099 21556
L63118 21575
L63137 21612
" />
<path d="M63306 21181
L63306 21369
L63118 21387
L63137 21369
L63156 21331
L63156 21237
L63137 21200
L63118 21181
L63081 21162
L62987 21162
L62949 21181
L62931 21200
L62912 21237
L62912 21331
L62931 21369
L62949 21387
" />
<path d="M63118 20562
L63099 20506
L63081 20487
L63043 20469
L62987 20469
L62949 20487
L62931 20506
L62912 20544
L62912 20694
L63306 20694
L63306 20562
L63287 20525
L63268 20506
L63231 20487
L63193 20487
L63156 20506
L63137 20525
L63118 20562
L63118 20694
" />
</g>
<g style="fill:#840084; fill-opacity:0.0; 
stroke:#840084; stroke-width:47.2441; stroke-opacity:1; 
stroke-linecap:round; stroke-linejoin:round;">
<path d="M61295 19539
L61633 19539
" />
<path d="M59342 19539
L59681 19539
" />
<path d="M57366 19539
L57704 19539
" />
<path d="M55318 19535
L55657 19535
" />
<path d="M53330 19535
L53669 19535
" />
</g>
<g style="fill:#840084; fill-opacity:0.0; 
stroke:#840084; stroke-width:59.0551; stroke-opacity:1; 
stroke-linecap:round; stroke-linejoin:round;">
<text x="61543.3" y="20842.5"
transform="scale(-1 1) translate(-123086.614173 0)"
textLength="1104.33" font-size="524.934" lengthAdjust="spacingAndGlyphs"
text-anchor="middle" opacity="0">CH1</text>
<path d="M61815 20786
L61833 20805
L61890 20823
L61927 20823
L61983 20805
L62021 20767
L62040 20730
L62058 20655
L62058 20598
L62040 20523
L62021 20486
L61983 20448
L61927 20430
L61890 20430
L61833 20448
L61815 20467
" />
<path d="M61646 20823
L61646 20430
" />
<path d="M61646 20617
L61421 20617
" />
<path d="M61421 20823
L61421 20430
" />
<path d="M61027 20823
L61252 20823
" />
<path d="M61140 20823
L61140 20430
L61177 20486
L61215 20523
L61252 20542
" />
<text x="59523.6" y="20822.8"
transform="scale(-1 1) translate(-119047.244094 0)"
textLength="1104.33" font-size="524.934" lengthAdjust="spacingAndGlyphs"
text-anchor="middle" opacity="0">CH2</text>
<path d="M59795 20766
L59814 20785
L59870 20804
L59907 20804
L59964 20785
L60001 20747
L60020 20710
L60039 20635
L60039 20579
L60020 20504
L60001 20466
L59964 20429
L59907 20410
L59870 20410
L59814 20429
L59795 20447
" />
<path d="M59626 20804
L59626 20410
" />
<path d="M59626 20597
L59401 20597
" />
<path d="M59401 20804
L59401 20410
" />
<path d="M59233 20447
L59214 20429
L59176 20410
L59083 20410
L59045 20429
L59026 20447
L59008 20485
L59008 20522
L59026 20579
L59251 20804
L59008 20804
" />
<text x="57519.7" y="20822.8"
transform="scale(-1 1) translate(-115039.370079 0)"
textLength="1104.33" font-size="524.934" lengthAdjust="spacingAndGlyphs"
text-anchor="middle" opacity="0">CH3</text>
<path d="M57791 20766
L57810 20785
L57866 20804
L57904 20804
L57960 20785
L57997 20747
L58016 20710
L58035 20635
L58035 20579
L58016 20504
L57997 20466
L57960 20429
L57904 20410
L57866 20410
L57810 20429
L57791 20447
" />
<path d="M57622 20804
L57622 20410
" />
<path d="M57622 20597
L57397 20597
" />
<path d="M57397 20804
L57397 20410
" />
<path d="M57247 20410
L57004 20410
L57135 20560
L57079 20560
L57041 20579
L57022 20597
L57004 20635
L57004 20729
L57022 20766
L57041 20785
L57079 20804
L57191 20804
L57229 20785
L57247 20766
" />
<text x="55535.4" y="20783.5"
transform="scale(-1 1) translate(-111070.866142 0)"
textLength="1104.33" font-size="524.934" lengthAdjust="spacingAndGlyphs"
text-anchor="middle" opacity="0">CH4</text>
<path d="M55807 20727
L55826 20745
L55882 20764
L55919 20764
L55976 20745
L56013 20708
L56032 20670
L56050 20595
L56050 20539
L56032 20464
L56013 20427
L55976 20389
L55919 20371
L55882 20371
L55826 20389
L55807 20408
" />
<path d="M55638 20764
L55638 20371
" />
<path d="M55638 20558
L55413 20558
" />
<path d="M55413 20764
L55413 20371
" />
<path d="M55057 20502
L55057 20764
" />
<path d="M55151 20352
L55244 20633
L55001 20633
" />
<text x="53492.1" y="20783.5"
transform="scale(-1 1) translate(-106984.251969 0)"
textLength="1104.33" font-size="524.934" lengthAdjust="spacingAndGlyphs"
text-anchor="middle" opacity="0">CH5</text>
<path d="M53763 20727
L53782 20745
L53838 20764
L53876 20764
L53932 20745
L53970 20708
L53988 20670
L54007 20595
L54007 20539
L53988 20464
L53970 20427
L53932 20389
L53876 20371
L53838 20371
L53782 20389
L53763 20408
" />
<path d="M53595 20764
L53595 20371
" />
<path d="M53595 20558
L53370 20558
" />
<path d="M53370 20764
L53370 20371
" />
<path d="M52995 20371
L53182 20371
L53201 20558
L53182 20539
L53145 20520
L53051 20520
L53014 20539
L52995 20558
L52976 20595
L52976 20689
L52995 20727
L53014 20745
L53051 20764
L53145 20764
L53182 20745
L53201 20727
" />
<text x="66539.4" y="18070.9"
transform="scale(-1 1) translate(-133078.740157 0)"
textLength="110.705" font-size="524.934" lengthAdjust="spacingAndGlyphs"
text-anchor="middle" opacity="0">.</text>
<path d="M66539 18014
L66520 18033
L66539 18052
L66558 18033
L66539 18014
L66539 18052
" />
<g transform="rotate(90 52952.8 17126)">
<text x="52952.8" y="17322.8"
transform="scale(-1 1) translate(-105905.511811 0)"
textLength="1123.08" font-size="524.934" lengthAdjust="spacingAndGlyphs"
text-anchor="middle" opacity="0">GND</text>
</g>
<path d="M53149 17425
L53168 17463
L53168 17519
L53149 17575
L53112 17613
L53074 17632
L52999 17650
L52943 17650
L52868 17632
L52830 17613
L52793 17575
L52774 17519
L52774 17482
L52793 17425
L52812 17407
L52943 17407
L52943 17482
" />
<path d="M52774 17238
L53168 17238
L52774 17013
L53168 17013
" />
<path d="M52774 16826
L53168 16826
L53168 16732
L53149 16676
L53112 16638
L53074 16619
L52999 16601
L52943 16601
L52868 16619
L52830 16638
L52793 16676
L52774 16732
L52774 16826
" />
<g transform="rotate(90 53984.3 17248)">
<text x="53984.3" y="17444.9"
transform="scale(-1 1) translate(-107968.503937 0)"
textLength="1123.08" font-size="524.934" lengthAdjust="spacingAndGlyphs"
text-anchor="middle" opacity="0">GND</text>
</g>
<path d="M54181 17547
L54199 17585
L54199 17641
L54181 17697
L54143 17735
L54106 17754
L54031 17772
L53974 17772
L53899 17754
L53862 17735
L53824 17697
L53806 17641
L53806 17604
L53824 17547
L53843 17529
L53974 17529
L53974 17604
" />
<path d="M53806 17360
L54199 17360
L53806 17135
L54199 17135
" />
<path d="M53806 16948
L54199 16948
L54199 16854
L54181 16798
L54143 16760
L54106 16741
L54031 16723
L53974 16723
L53899 16741
L53862 16760
L53824 16798
L53806 16854
L53806 16948
" />
<g transform="rotate(90 54952.8 17208.7)">
<text x="54952.8" y="17405.5"
transform="scale(-1 1) translate(-109905.511811 0)"
textLength="1123.08" font-size="524.934" lengthAdjust="spacingAndGlyphs"
text-anchor="middle" opacity="0">GND</text>
</g>
<path d="M55149 17508
L55168 17546
L55168 17602
L55149 17658
L55112 17696
L55074 17714
L54999 17733
L54943 17733
L54868 17714
L54830 17696
L54793 17658
L54774 17602
L54774 17564
L54793 17508
L54812 17489
L54943 17489
L54943 17564
" />
<path d="M54774 17321
L55168 17321
L54774 17096
L55168 17096
" />
<path d="M54774 16908
L55168 16908
L55168 16814
L55149 16758
L55112 16721
L55074 16702
L54999 16683
L54943 16683
L54868 16702
L54830 16721
L54793 16758
L54774 16814
L54774 16908
" />
<g transform="rotate(90 55944.9 17169.3)">
<text x="55944.9" y="17366.1"
transform="scale(-1 1) translate(-111889.763780 0)"
textLength="1123.08" font-size="524.934" lengthAdjust="spacingAndGlyphs"
text-anchor="middle" opacity="0">GND</text>
</g>
<path d="M56141 17469
L56160 17506
L56160 17562
L56141 17619
L56104 17656
L56066 17675
L55991 17694
L55935 17694
L55860 17675
L55823 17656
L55785 17619
L55766 17562
L55766 17525
L55785 17469
L55804 17450
L55935 17450
L55935 17525
" />
<path d="M55766 17281
L56160 17281
L55766 17056
L56160 17056
" />
<path d="M55766 16869
L56160 16869
L56160 16775
L56141 16719
L56104 16681
L56066 16663
L55991 16644
L55935 16644
L55860 16663
L55823 16681
L55785 16719
L55766 16775
L55766 16869
" />
<g transform="rotate(90 51940.9 21547.2)">
<text x="51940.9" y="21744.1"
transform="scale(-1 1) translate(-103881.889764 0)"
textLength="1010.59" font-size="524.934" lengthAdjust="spacingAndGlyphs"
text-anchor="start" opacity="0">3V3</text>
</g>
<path d="M52156 21452
L52156 21208
L52006 21340
L52006 21283
L51987 21246
L51969 21227
L51931 21208
L51837 21208
L51800 21227
L51781 21246
L51762 21283
L51762 21396
L51781 21433
L51800 21452
" />
<path d="M52156 21096
L51762 20965
L52156 20833
" />
<path d="M52156 20740
L52156 20496
L52006 20627
L52006 20571
L51987 20533
L51969 20515
L51931 20496
L51837 20496
L51800 20515
L51781 20533
L51762 20571
L51762 20683
L51781 20721
L51800 20740
" />
<g transform="rotate(90 51925.2 17704.7)">
<text x="51925.2" y="17901.6"
transform="scale(-1 1) translate(-103850.393701 0)"
textLength="1010.59" font-size="524.934" lengthAdjust="spacingAndGlyphs"
text-anchor="start" opacity="0">3V3</text>
</g>
<path d="M52140 17610
L52140 17366
L51990 17497
L51990 17441
L51972 17403
L51953 17385
L51915 17366
L51822 17366
L51784 17385
L51765 17403
L51747 17441
L51747 17553
L51765 17591
L51784 17610
" />
<path d="M52140 17253
L51747 17122
L52140 16991
" />
<path d="M52140 16897
L52140 16653
L51990 16785
L51990 16728
L51972 16691
L51953 16672
L51915 16653
L51822 16653
L51784 16672
L51765 16691
L51747 16728
L51747 16841
L51765 16878
L51784 16897
" />
<g transform="rotate(90 50913.4 17602.4)">
<text x="50913.4" y="17799.2"
transform="scale(-1 1) translate(-101826.771654 0)"
textLength="298.181" font-size="524.934" lengthAdjust="spacingAndGlyphs"
text-anchor="start" opacity="0">5</text>
</g>
<path d="M51128 17282
L51128 17470
L50941 17488
L50960 17470
L50979 17432
L50979 17339
L50960 17301
L50941 17282
L50904 17264
L50810 17264
L50772 17282
L50754 17301
L50735 17339
L50735 17432
L50754 17470
L50772 17488
" />
<g transform="rotate(90 50948.8 20858.3)">
<text x="50948.8" y="21055.1"
transform="scale(-1 1) translate(-101897.637795 0)"
textLength="298.181" font-size="524.934" lengthAdjust="spacingAndGlyphs"
text-anchor="start" opacity="0">5</text>
</g>
<path d="M51164 20538
L51164 20726
L50976 20744
L50995 20726
L51014 20688
L51014 20594
L50995 20557
L50976 20538
L50939 20519
L50845 20519
L50808 20538
L50789 20557
L50770 20594
L50770 20688
L50789 20726
L50808 20744
" />
<g transform="rotate(90 49952.8 17673.2)">
<text x="49952.8" y="17870.1"
transform="scale(-1 1) translate(-99905.511811 0)"
textLength="1010.59" font-size="524.934" lengthAdjust="spacingAndGlyphs"
text-anchor="start" opacity="0">7V4</text>
</g>
<path d="M50168 17578
L50168 17316
L49774 17484
" />
<path d="M50168 17222
L49774 17091
L50168 16959
" />
<path d="M50037 16659
L49774 16659
" />
<path d="M50187 16753
L49905 16847
L49905 16603
" />
<g transform="rotate(90 49952.8 21598.4)">
<text x="49952.8" y="21795.3"
transform="scale(-1 1) translate(-99905.511811 0)"
textLength="1010.59" font-size="524.934" lengthAdjust="spacingAndGlyphs"
text-anchor="start" opacity="0">7V4</text>
</g>
<path d="M50168 21503
L50168 21241
L49774 21410
" />
<path d="M50168 21147
L49774 21016
L50168 20885
" />
<path d="M50037 20585
L49774 20585
" />
<path d="M50187 20678
L49905 20772
L49905 20528
" />
<g transform="rotate(90 48940.9 20956.7)">
<text x="48940.9" y="21153.5"
transform="scale(-1 1) translate(-97881.889764 0)"
textLength="1066.84" font-size="524.934" lengthAdjust="spacingAndGlyphs"
text-anchor="middle" opacity="0">RFU</text>
</g>
<path d="M48762 21209
L48950 21341
" />
<path d="M48762 21434
L49156 21434
L49156 21284
L49137 21247
L49119 21228
L49081 21209
L49025 21209
L48987 21228
L48969 21247
L48950 21284
L48950 21434
" />
<path d="M48969 20909
L48969 21041
" />
<path d="M48762 21041
L49156 21041
L49156 20853
" />
<path d="M49156 20703
L48837 20703
L48800 20684
L48781 20666
L48762 20628
L48762 20553
L48781 20516
L48800 20497
L48837 20478
L49156 20478
" />
<g transform="rotate(90 47944.9 20956.7)">
<text x="47944.9" y="21153.5"
transform="scale(-1 1) translate(-95889.763780 0)"
textLength="1066.84" font-size="524.934" lengthAdjust="spacingAndGlyphs"
text-anchor="middle" opacity="0">RFU</text>
</g>
<path d="M47766 21209
L47954 21341
" />
<path d="M47766 21434
L48160 21434
L48160 21284
L48141 21247
L48122 21228
L48085 21209
L48029 21209
L47991 21228
L47973 21247
L47954 21284
L47954 21434
" />
<path d="M47973 20909
L47973 21041
" />
<path d="M47766 21041
L48160 21041
L48160 20853
" />
<path d="M48160 20703
L47841 20703
L47804 20684
L47785 20666
L47766 20628
L47766 20553
L47785 20516
L47804 20497
L47841 20478
L48160 20478
" />
<g transform="rotate(90 46968.5 20925.2)">
<text x="46968.5" y="21122"
transform="scale(-1 1) translate(-93937.007874 0)"
textLength="1066.84" font-size="524.934" lengthAdjust="spacingAndGlyphs"
text-anchor="middle" opacity="0">RFU</text>
</g>
<path d="M46790 21178
L46977 21309
" />
<path d="M46790 21403
L47184 21403
L47184 21253
L47165 21215
L47146 21197
L47109 21178
L47052 21178
L47015 21197
L46996 21215
L46977 21253
L46977 21403
" />
<path d="M46996 20878
L46996 21009
" />
<path d="M46790 21009
L47184 21009
L47184 20822
" />
<path d="M47184 20672
L46865 20672
L46827 20653
L46809 20634
L46790 20597
L46790 20522
L46809 20484
L46827 20465
L46865 20447
L47184 20447
" />
<g transform="rotate(90 48992.1 17145.7)">
<text x="48992.1" y="17342.5"
transform="scale(-1 1) translate(-97984.251969 0)"
textLength="1066.84" font-size="524.934" lengthAdjust="spacingAndGlyphs"
text-anchor="middle" opacity="0">RFU</text>
</g>
<path d="M48814 17398
L49001 17529
" />
<path d="M48814 17623
L49207 17623
L49207 17473
L49188 17436
L49170 17417
L49132 17398
L49076 17398
L49038 17417
L49020 17436
L49001 17473
L49001 17623
" />
<path d="M49020 17098
L49020 17230
" />
<path d="M48814 17230
L49207 17230
L49207 17042
" />
<path d="M49207 16892
L48889 16892
L48851 16873
L48832 16855
L48814 16817
L48814 16742
L48832 16705
L48851 16686
L48889 16667
L49207 16667
" />
<g transform="rotate(90 47964.6 17141.7)">
<text x="47964.6" y="17338.6"
transform="scale(-1 1) translate(-95929.133858 0)"
textLength="1066.84" font-size="524.934" lengthAdjust="spacingAndGlyphs"
text-anchor="middle" opacity="0">RFU</text>
</g>
<path d="M47786 17394
L47973 17526
" />
<path d="M47786 17619
L48180 17619
L48180 17469
L48161 17432
L48142 17413
L48105 17394
L48048 17394
L48011 17413
L47992 17432
L47973 17469
L47973 17619
" />
<path d="M47992 17094
L47992 17226
" />
<path d="M47786 17226
L48180 17226
L48180 17038
" />
<path d="M48180 16888
L47861 16888
L47823 16869
L47805 16851
L47786 16813
L47786 16738
L47805 16701
L47823 16682
L47861 16663
L48180 16663
" />
<g transform="rotate(90 46968.5 17145.7)">
<text x="46968.5" y="17342.5"
transform="scale(-1 1) translate(-93937.007874 0)"
textLength="1066.84" font-size="524.934" lengthAdjust="spacingAndGlyphs"
text-anchor="middle" opacity="0">RFU</text>
</g>
<path d="M46790 17398
L46977 17529
" />
<path d="M46790 17623
L47184 17623
L47184 17473
L47165 17436
L47146 17417
L47109 17398
L47052 17398
L47015 17417
L46996 17436
L46977 17473
L46977 17623
" />
<path d="M46996 17098
L46996 17230
" />
<path d="M46790 17230
L47184 17230
L47184 17042
" />
<path d="M47184 16892
L46865 16892
L46827 16873
L46809 16855
L46790 16817
L46790 16742
L46809 16705
L46827 16686
L46865 16667
L47184 16667
" />
<g transform="rotate(90 56972.4 17149.6)">
<text x="56972.4" y="17346.5"
transform="scale(-1 1) translate(-113944.881890 0)"
textLength="1123.08" font-size="524.934" lengthAdjust="spacingAndGlyphs"
text-anchor="middle" opacity="0">GND</text>
</g>
<path d="M57169 17449
L57188 17487
L57188 17543
L57169 17599
L57131 17637
L57094 17655
L57019 17674
L56963 17674
L56888 17655
L56850 17637
L56813 17599
L56794 17543
L56794 17505
L56813 17449
L56831 17430
L56963 17430
L56963 17505
" />
<path d="M56794 17262
L57188 17262
L56794 17037
L57188 17037
" />
<path d="M56794 16849
L57188 16849
L57188 16755
L57169 16699
L57131 16662
L57094 16643
L57019 16624
L56963 16624
L56888 16643
L56850 16662
L56813 16699
L56794 16755
L56794 16849
" />
<g transform="rotate(90 57980.3 17177.2)">
<text x="57980.3" y="17374"
transform="scale(-1 1) translate(-115960.629921 0)"
textLength="1123.08" font-size="524.934" lengthAdjust="spacingAndGlyphs"
text-anchor="middle" opacity="0">GND</text>
</g>
<path d="M58177 17477
L58195 17514
L58195 17570
L58177 17627
L58139 17664
L58102 17683
L58027 17702
L57970 17702
L57895 17683
L57858 17664
L57820 17627
L57802 17570
L57802 17533
L57820 17477
L57839 17458
L57970 17458
L57970 17533
" />
<path d="M57802 17289
L58195 17289
L57802 17064
L58195 17064
" />
<path d="M57802 16877
L58195 16877
L58195 16783
L58177 16727
L58139 16689
L58102 16670
L58027 16652
L57970 16652
L57895 16670
L57858 16689
L57820 16727
L57802 16783
L57802 16877
" />
<g transform="rotate(90 58968.5 17169.3)">
<text x="58968.5" y="17366.1"
transform="scale(-1 1) translate(-117937.007874 0)"
textLength="1123.08" font-size="524.934" lengthAdjust="spacingAndGlyphs"
text-anchor="middle" opacity="0">GND</text>
</g>
<path d="M59165 17469
L59184 17506
L59184 17562
L59165 17619
L59127 17656
L59090 17675
L59015 17694
L58959 17694
L58884 17675
L58846 17656
L58809 17619
L58790 17562
L58790 17525
L58809 17469
L58827 17450
L58959 17450
L58959 17525
" />
<path d="M58790 17281
L59184 17281
L58790 17056
L59184 17056
" />
<path d="M58790 16869
L59184 16869
L59184 16775
L59165 16719
L59127 16681
L59090 16663
L59015 16644
L58959 16644
L58884 16663
L58846 16681
L58809 16719
L58790 16775
L58790 16869
" />
<g transform="rotate(90 59976.4 17149.6)">
<text x="59976.4" y="17346.5"
transform="scale(-1 1) translate(-119952.755906 0)"
textLength="1123.08" font-size="524.934" lengthAdjust="spacingAndGlyphs"
text-anchor="middle" opacity="0">GND</text>
</g>
<path d="M60173 17449
L60191 17487
L60191 17543
L60173 17599
L60135 17637
L60098 17655
L60023 17674
L59967 17674
L59892 17655
L59854 17637
L59817 17599
L59798 17543
L59798 17505
L59817 17449
L59835 17430
L59967 17430
L59967 17505
" />
<path d="M59798 17262
L60191 17262
L59798 17037
L60191 17037
" />
<path d="M59798 16849
L60191 16849
L60191 16755
L60173 16699
L60135 16662
L60098 16643
L60023 16624
L59967 16624
L59892 16643
L59854 16662
L59817 16699
L59798 16755
L59798 16849
" />
<g transform="rotate(90 60952.8 17169.3)">
<text x="60952.8" y="17366.1"
transform="scale(-1 1) translate(-121905.511811 0)"
textLength="1123.08" font-size="524.934" lengthAdjust="spacingAndGlyphs"
text-anchor="middle" opacity="0">GND</text>
</g>
<path d="M61149 17469
L61168 17506
L61168 17562
L61149 17619
L61112 17656
L61074 17675
L60999 17694
L60943 17694
L60868 17675
L60830 17656
L60793 17619
L60774 17562
L60774 17525
L60793 17469
L60812 17450
L60943 17450
L60943 17525
" />
<path d="M60774 17281
L61168 17281
L60774 17056
L61168 17056
" />
<path d="M60774 16869
L61168 16869
L61168 16775
L61149 16719
L61112 16681
L61074 16663
L60999 16644
L60943 16644
L60868 16663
L60830 16681
L60793 16719
L60774 16775
L60774 16869
" />
<g transform="rotate(90 61956.7 17133.9)">
<text x="61956.7" y="17330.7"
transform="scale(-1 1) translate(-123913.385827 0)"
textLength="1123.08" font-size="524.934" lengthAdjust="spacingAndGlyphs"
text-anchor="middle" opacity="0">GND</text>
</g>
<path d="M62153 17433
L62172 17471
L62172 17527
L62153 17583
L62116 17621
L62078 17640
L62003 17658
L61947 17658
L61872 17640
L61834 17621
L61797 17583
L61778 17527
L61778 17490
L61797 17433
L61816 17415
L61947 17415
L61947 17490
" />
<path d="M61778 17246
L62172 17246
L61778 17021
L62172 17021
" />
<path d="M61778 16833
L62172 16833
L62172 16740
L62153 16683
L62116 16646
L62078 16627
L62003 16608
L61947 16608
L61872 16627
L61834 16646
L61797 16683
L61778 16740
L61778 16833
" />
<g transform="rotate(90 62952.8 17141.7)">
<text x="62952.8" y="17338.6"
transform="scale(-1 1) translate(-125905.511811 0)"
textLength="1123.08" font-size="524.934" lengthAdjust="spacingAndGlyphs"
text-anchor="middle" opacity="0">GND</text>
</g>
<path d="M63149 17441
L63168 17479
L63168 17535
L63149 17591
L63112 17629
L63074 17647
L62999 17666
L62943 17666
L62868 17647
L62830 17629
L62793 17591
L62774 17535
L62774 17497
L62793 17441
L62812 17422
L62943 17422
L62943 17497
" />
<path d="M62774 17254
L63168 17254
L62774 17029
L63168 17029
" />
<path d="M62774 16841
L63168 16841
L63168 16748
L63149 16691
L63112 16654
L63074 16635
L62999 16616
L62943 16616
L62868 16635
L62830 16654
L62793 16691
L62774 16748
L62774 16841
" />
<g transform="rotate(90 63952.8 17181.1)">
<text x="63952.8" y="17378"
transform="scale(-1 1) translate(-127905.511811 0)"
textLength="1123.08" font-size="524.934" lengthAdjust="spacingAndGlyphs"
text-anchor="middle" opacity="0">GND</text>
</g>
<path d="M64149 17481
L64168 17518
L64168 17574
L64149 17631
L64112 17668
L64074 17687
L63999 17706
L63943 17706
L63868 17687
L63830 17668
L63793 17631
L63774 17574
L63774 17537
L63793 17481
L63812 17462
L63943 17462
L63943 17537
" />
<path d="M63774 17293
L64168 17293
L63774 17068
L64168 17068
" />
<path d="M63774 16881
L64168 16881
L64168 16787
L64149 16731
L64112 16693
L64074 16674
L63999 16656
L63943 16656
L63868 16674
L63830 16693
L63793 16731
L63774 16787
L63774 16881
" />
<g transform="rotate(90 64968.5 17322.8)">
<text x="64968.5" y="17519.7"
transform="scale(-1 1) translate(-129937.007874 0)"
textLength="823.116" font-size="524.934" lengthAdjust="spacingAndGlyphs"
text-anchor="middle" opacity="0">INT</text>
</g>
<path d="M64790 17679
L65184 17679
" />
<path d="M64790 17491
L65184 17491
L64790 17266
L65184 17266
" />
<path d="M65184 17135
L65184 16910
" />
<path d="M64790 17022
L65184 17022
" />
<g transform="rotate(-270 66055.1 17023.6)">
<text x="66055.1" y="17220.5"
transform="scale(-1 1) translate(-132110.236220 0)"
textLength="1441.79" font-size="524.934" lengthAdjust="spacingAndGlyphs"
text-anchor="middle" opacity="0">BUSY</text>
</g>
<path d="M66083 17557
L66064 17501
L66045 17482
L66008 17464
L65952 17464
L65914 17482
L65895 17501
L65877 17539
L65877 17689
L66270 17689
L66270 17557
L66251 17520
L66233 17501
L66195 17482
L66158 17482
L66120 17501
L66101 17520
L66083 17557
L66083 17689
" />
<path d="M66270 17295
L65952 17295
L65914 17276
L65895 17257
L65877 17220
L65877 17145
L65895 17107
L65914 17089
L65952 17070
L66270 17070
" />
<path d="M65895 16901
L65877 16845
L65877 16751
L65895 16714
L65914 16695
L65952 16676
L65989 16676
L66026 16695
L66045 16714
L66064 16751
L66083 16826
L66101 16864
L66120 16883
L66158 16901
L66195 16901
L66233 16883
L66251 16864
L66270 16826
L66270 16733
L66251 16676
" />
<path d="M66064 16433
L65877 16433
" />
<path d="M66270 16564
L66064 16433
L66270 16301
" />
<g >
</g>
</g>
<g style="fill:#000000; fill-opacity:0.0; 
stroke:#000000; stroke-width:59.0551; stroke-opacity:1; 
stroke-linecap:round; stroke-linejoin:round;">
</g>
<g style="fill:#C2C200; fill-opacity:0.0; 
stroke:#C2C200; stroke-width:59.0551; stroke-opacity:1; 
stroke-linecap:round; stroke-linejoin:round;">
</g>
<g style="fill:#C2C200; fill-opacity:0.0; 
stroke:#C2C200; stroke-width:19.685; stroke-opacity:1; 
stroke-linecap:round; stroke-linejoin:round;">
<path d="M73114.3 19988.8 A475.761 475.761 0.0 0 0 73653.8 20557.8" />
<path d="M74208.7 21153.5 A552.943 552.943 0.0 0 0 73653.6 20556.5" />
<path d="M73114 17137
L73114 19988
" />
<path d="M73114.2 17137.8 A1397.69 1397.69 0.0 0 0 71716.5 15752" />
<path d="M39782.8 20469.3 A554.336 554.336 0.0 0 0 39169.4 21024.4" />
<path d="M39782.8 20469.3 A475.761 475.761 0.0 0 0 40357.7 20003.9" />
<path d="M40346 17145
L40357 20003
" />
<path d="M41732.3 15748 A1397.69 1397.69 0.0 0 0 40346.4 17145.7" />
<path d="M39169.3 51059.1 A1421.26 1421.26 0.0 0 0 40582.7 52480.3" />
<path d="M72787.4 52480.3 A1421.26 1421.26 0.0 0 0 74208.6 51066.9" />
<path d="M74208 51066
L74208 21153
" />
<path d="M39169 51059
L39169 21024
" />
<path d="M40582 52480
L72787 52480
" />
<path d="M41732 15748
L71716 15751
" />
<g >
</g>
<g >
</g>
<g >
</g>
<g >
</g>
<g >
</g>
<g >
</g>
<g >
</g>
<g >
</g>
<g >
</g>
</g> 
</svg>
